solid OpenSCAD_Model
  facet normal 0.793351 -0.608765 0
    outer loop
      vertex 2.70096 4.75 2.5
      vertex 2.93934 5.06066 0
      vertex 2.93934 5.06066 2.5
    endloop
  endfacet
  facet normal 0.793351 -0.608765 0
    outer loop
      vertex 2.93934 5.06066 0
      vertex 2.70096 4.75 2.5
      vertex 2.70096 4.75 0
    endloop
  endfacet
  facet normal -0.92388 -0.382683 0
    outer loop
      vertex 5.44889 4.38823 0
      vertex 5.29904 4.75 2.5
      vertex 5.29904 4.75 0
    endloop
  endfacet
  facet normal -0.92388 -0.382683 0
    outer loop
      vertex 5.29904 4.75 2.5
      vertex 5.44889 4.38823 0
      vertex 5.44889 4.38823 2.5
    endloop
  endfacet
  facet normal -0.991445 -0.130523 0
    outer loop
      vertex 5.5 4 0
      vertex 5.44889 4.38823 2.5
      vertex 5.44889 4.38823 0
    endloop
  endfacet
  facet normal -0.991445 -0.130523 0
    outer loop
      vertex 5.44889 4.38823 2.5
      vertex 5.5 4 0
      vertex 5.5 4 2.5
    endloop
  endfacet
  facet normal -0.92388 0.382683 0
    outer loop
      vertex 5.29904 3.25 0
      vertex 5.44889 3.61177 2.5
      vertex 5.44889 3.61177 0
    endloop
  endfacet
  facet normal -0.92388 0.382683 0
    outer loop
      vertex 5.44889 3.61177 2.5
      vertex 5.29904 3.25 0
      vertex 5.29904 3.25 2.5
    endloop
  endfacet
  facet normal -0.130523 0.991445 0
    outer loop
      vertex 4.38823 2.55111 0
      vertex 4 2.5 2.5
      vertex 4.38823 2.55111 2.5
    endloop
  endfacet
  facet normal -0.130523 0.991445 0
    outer loop
      vertex 4 2.5 2.5
      vertex 4.38823 2.55111 0
      vertex 4 2.5 0
    endloop
  endfacet
  facet normal -0.382683 0.92388 0
    outer loop
      vertex 4.75 2.70096 0
      vertex 4.38823 2.55111 2.5
      vertex 4.75 2.70096 2.5
    endloop
  endfacet
  facet normal -0.382683 0.92388 0
    outer loop
      vertex 4.38823 2.55111 2.5
      vertex 4.75 2.70096 0
      vertex 4.38823 2.55111 0
    endloop
  endfacet
  facet normal 0.130523 0.991445 -0
    outer loop
      vertex 4 2.5 0
      vertex 3.61177 2.55111 2.5
      vertex 4 2.5 2.5
    endloop
  endfacet
  facet normal 0.130523 0.991445 0
    outer loop
      vertex 3.61177 2.55111 2.5
      vertex 4 2.5 0
      vertex 3.61177 2.55111 0
    endloop
  endfacet
  facet normal 0.991445 -0.130523 0
    outer loop
      vertex 2.5 4 2.5
      vertex 2.55111 4.38823 0
      vertex 2.55111 4.38823 2.5
    endloop
  endfacet
  facet normal 0.991445 -0.130523 0
    outer loop
      vertex 2.55111 4.38823 0
      vertex 2.5 4 2.5
      vertex 2.5 4 0
    endloop
  endfacet
  facet normal 0.608765 0.793351 -0
    outer loop
      vertex 3.25 2.70096 0
      vertex 2.93934 2.93934 2.5
      vertex 3.25 2.70096 2.5
    endloop
  endfacet
  facet normal 0.608765 0.793351 0
    outer loop
      vertex 2.93934 2.93934 2.5
      vertex 3.25 2.70096 0
      vertex 2.93934 2.93934 0
    endloop
  endfacet
  facet normal 0.991445 0.130523 0
    outer loop
      vertex 2.55111 3.61177 2.5
      vertex 2.5 4 0
      vertex 2.5 4 2.5
    endloop
  endfacet
  facet normal 0.991445 0.130523 0
    outer loop
      vertex 2.5 4 0
      vertex 2.55111 3.61177 2.5
      vertex 2.55111 3.61177 0
    endloop
  endfacet
  facet normal 0.382683 -0.92388 0
    outer loop
      vertex 3.25 5.29904 0
      vertex 3.61177 5.44889 2.5
      vertex 3.25 5.29904 2.5
    endloop
  endfacet
  facet normal 0.382683 -0.92388 0
    outer loop
      vertex 3.61177 5.44889 2.5
      vertex 3.25 5.29904 0
      vertex 3.61177 5.44889 0
    endloop
  endfacet
  facet normal 0.92388 -0.382683 0
    outer loop
      vertex 2.55111 4.38823 2.5
      vertex 2.70096 4.75 0
      vertex 2.70096 4.75 2.5
    endloop
  endfacet
  facet normal 0.92388 -0.382683 0
    outer loop
      vertex 2.70096 4.75 0
      vertex 2.55111 4.38823 2.5
      vertex 2.55111 4.38823 0
    endloop
  endfacet
  facet normal -0.382683 -0.92388 0
    outer loop
      vertex 4.38823 5.44889 0
      vertex 4.75 5.29904 2.5
      vertex 4.38823 5.44889 2.5
    endloop
  endfacet
  facet normal -0.382683 -0.92388 -0
    outer loop
      vertex 4.75 5.29904 2.5
      vertex 4.38823 5.44889 0
      vertex 4.75 5.29904 0
    endloop
  endfacet
  facet normal 0.130523 -0.991445 0
    outer loop
      vertex 3.61177 5.44889 0
      vertex 4 5.5 2.5
      vertex 3.61177 5.44889 2.5
    endloop
  endfacet
  facet normal 0.130523 -0.991445 0
    outer loop
      vertex 4 5.5 2.5
      vertex 3.61177 5.44889 0
      vertex 4 5.5 0
    endloop
  endfacet
  facet normal 0.608765 -0.793351 0
    outer loop
      vertex 2.93934 5.06066 0
      vertex 3.25 5.29904 2.5
      vertex 2.93934 5.06066 2.5
    endloop
  endfacet
  facet normal 0.608765 -0.793351 0
    outer loop
      vertex 3.25 5.29904 2.5
      vertex 2.93934 5.06066 0
      vertex 3.25 5.29904 0
    endloop
  endfacet
  facet normal 0.793351 0.608765 0
    outer loop
      vertex 2.93934 2.93934 2.5
      vertex 2.70096 3.25 0
      vertex 2.70096 3.25 2.5
    endloop
  endfacet
  facet normal 0.793351 0.608765 0
    outer loop
      vertex 2.70096 3.25 0
      vertex 2.93934 2.93934 2.5
      vertex 2.93934 2.93934 0
    endloop
  endfacet
  facet normal -0.793351 0.608765 0
    outer loop
      vertex 5.06066 2.93934 0
      vertex 5.29904 3.25 2.5
      vertex 5.29904 3.25 0
    endloop
  endfacet
  facet normal -0.793351 0.608765 0
    outer loop
      vertex 5.29904 3.25 2.5
      vertex 5.06066 2.93934 0
      vertex 5.06066 2.93934 2.5
    endloop
  endfacet
  facet normal -0.991445 0.130523 0
    outer loop
      vertex 5.44889 3.61177 0
      vertex 5.5 4 2.5
      vertex 5.5 4 0
    endloop
  endfacet
  facet normal -0.991445 0.130523 0
    outer loop
      vertex 5.5 4 2.5
      vertex 5.44889 3.61177 0
      vertex 5.44889 3.61177 2.5
    endloop
  endfacet
  facet normal -0.793351 -0.608765 0
    outer loop
      vertex 5.29904 4.75 0
      vertex 5.06066 5.06066 2.5
      vertex 5.06066 5.06066 0
    endloop
  endfacet
  facet normal -0.793351 -0.608765 0
    outer loop
      vertex 5.06066 5.06066 2.5
      vertex 5.29904 4.75 0
      vertex 5.29904 4.75 2.5
    endloop
  endfacet
  facet normal 0.92388 0.382683 0
    outer loop
      vertex 2.70096 3.25 2.5
      vertex 2.55111 3.61177 0
      vertex 2.55111 3.61177 2.5
    endloop
  endfacet
  facet normal 0.92388 0.382683 0
    outer loop
      vertex 2.55111 3.61177 0
      vertex 2.70096 3.25 2.5
      vertex 2.70096 3.25 0
    endloop
  endfacet
  facet normal -0.608765 -0.793351 0
    outer loop
      vertex 4.75 5.29904 0
      vertex 5.06066 5.06066 2.5
      vertex 4.75 5.29904 2.5
    endloop
  endfacet
  facet normal -0.608765 -0.793351 -0
    outer loop
      vertex 5.06066 5.06066 2.5
      vertex 4.75 5.29904 0
      vertex 5.06066 5.06066 0
    endloop
  endfacet
  facet normal -0.130523 -0.991445 0
    outer loop
      vertex 4 5.5 0
      vertex 4.38823 5.44889 2.5
      vertex 4 5.5 2.5
    endloop
  endfacet
  facet normal -0.130523 -0.991445 -0
    outer loop
      vertex 4.38823 5.44889 2.5
      vertex 4 5.5 0
      vertex 4.38823 5.44889 0
    endloop
  endfacet
  facet normal -0.608765 0.793351 0
    outer loop
      vertex 5.06066 2.93934 0
      vertex 4.75 2.70096 2.5
      vertex 5.06066 2.93934 2.5
    endloop
  endfacet
  facet normal -0.608765 0.793351 0
    outer loop
      vertex 4.75 2.70096 2.5
      vertex 5.06066 2.93934 0
      vertex 4.75 2.70096 0
    endloop
  endfacet
  facet normal 0.382683 0.92388 -0
    outer loop
      vertex 3.61177 2.55111 0
      vertex 3.25 2.70096 2.5
      vertex 3.61177 2.55111 2.5
    endloop
  endfacet
  facet normal 0.382683 0.92388 0
    outer loop
      vertex 3.25 2.70096 2.5
      vertex 3.61177 2.55111 0
      vertex 3.25 2.70096 0
    endloop
  endfacet
  facet normal 0.793819 -0.608154 0
    outer loop
      vertex 107.701 4.75 2.5
      vertex 107.939 5.06066 0
      vertex 107.939 5.06066 2.5
    endloop
  endfacet
  facet normal 0.793819 -0.608154 0
    outer loop
      vertex 107.939 5.06066 0
      vertex 107.701 4.75 2.5
      vertex 107.701 4.75 0
    endloop
  endfacet
  facet normal -0.923744 -0.38301 0
    outer loop
      vertex 110.449 4.38823 0
      vertex 110.299 4.75 2.5
      vertex 110.299 4.75 0
    endloop
  endfacet
  facet normal -0.923744 -0.38301 0
    outer loop
      vertex 110.299 4.75 2.5
      vertex 110.449 4.38823 0
      vertex 110.449 4.38823 2.5
    endloop
  endfacet
  facet normal -0.991482 -0.130246 0
    outer loop
      vertex 110.5 4 0
      vertex 110.449 4.38823 2.5
      vertex 110.449 4.38823 0
    endloop
  endfacet
  facet normal -0.991482 -0.130246 0
    outer loop
      vertex 110.449 4.38823 2.5
      vertex 110.5 4 0
      vertex 110.5 4 2.5
    endloop
  endfacet
  facet normal -0.923744 0.38301 0
    outer loop
      vertex 110.299 3.25 0
      vertex 110.449 3.61177 2.5
      vertex 110.449 3.61177 0
    endloop
  endfacet
  facet normal -0.923744 0.38301 0
    outer loop
      vertex 110.449 3.61177 2.5
      vertex 110.299 3.25 0
      vertex 110.299 3.25 2.5
    endloop
  endfacet
  facet normal -0.130599 0.991435 0
    outer loop
      vertex 109.388 2.55111 0
      vertex 109 2.5 2.5
      vertex 109.388 2.55111 2.5
    endloop
  endfacet
  facet normal -0.130599 0.991435 0
    outer loop
      vertex 109 2.5 2.5
      vertex 109.388 2.55111 0
      vertex 109 2.5 0
    endloop
  endfacet
  facet normal -0.382476 0.923966 0
    outer loop
      vertex 109.75 2.70096 0
      vertex 109.388 2.55111 2.5
      vertex 109.75 2.70096 2.5
    endloop
  endfacet
  facet normal -0.382476 0.923966 0
    outer loop
      vertex 109.388 2.55111 2.5
      vertex 109.75 2.70096 0
      vertex 109.388 2.55111 0
    endloop
  endfacet
  facet normal 0.991482 -0.130246 0
    outer loop
      vertex 107.5 4 2.5
      vertex 107.551 4.38823 0
      vertex 107.551 4.38823 2.5
    endloop
  endfacet
  facet normal 0.991482 -0.130246 0
    outer loop
      vertex 107.551 4.38823 0
      vertex 107.5 4 2.5
      vertex 107.5 4 0
    endloop
  endfacet
  facet normal 0.608346 0.793672 -0
    outer loop
      vertex 108.25 2.70096 0
      vertex 107.939 2.93934 2.5
      vertex 108.25 2.70096 2.5
    endloop
  endfacet
  facet normal 0.608346 0.793672 0
    outer loop
      vertex 107.939 2.93934 2.5
      vertex 108.25 2.70096 0
      vertex 107.939 2.93934 0
    endloop
  endfacet
  facet normal 0.991482 0.130246 0
    outer loop
      vertex 107.551 3.61177 2.5
      vertex 107.5 4 0
      vertex 107.5 4 2.5
    endloop
  endfacet
  facet normal 0.991482 0.130246 0
    outer loop
      vertex 107.5 4 0
      vertex 107.551 3.61177 2.5
      vertex 107.551 3.61177 0
    endloop
  endfacet
  facet normal 0.382476 -0.923966 0
    outer loop
      vertex 108.25 5.29904 0
      vertex 108.612 5.44889 2.5
      vertex 108.25 5.29904 2.5
    endloop
  endfacet
  facet normal 0.382476 -0.923966 0
    outer loop
      vertex 108.612 5.44889 2.5
      vertex 108.25 5.29904 0
      vertex 108.612 5.44889 0
    endloop
  endfacet
  facet normal 0.923744 -0.38301 0
    outer loop
      vertex 107.551 4.38823 2.5
      vertex 107.701 4.75 0
      vertex 107.701 4.75 2.5
    endloop
  endfacet
  facet normal 0.923744 -0.38301 0
    outer loop
      vertex 107.701 4.75 0
      vertex 107.551 4.38823 2.5
      vertex 107.551 4.38823 0
    endloop
  endfacet
  facet normal -0.382476 -0.923966 0
    outer loop
      vertex 109.388 5.44889 0
      vertex 109.75 5.29904 2.5
      vertex 109.388 5.44889 2.5
    endloop
  endfacet
  facet normal -0.382476 -0.923966 -0
    outer loop
      vertex 109.75 5.29904 2.5
      vertex 109.388 5.44889 0
      vertex 109.75 5.29904 0
    endloop
  endfacet
  facet normal 0.130599 -0.991435 0
    outer loop
      vertex 108.612 5.44889 0
      vertex 109 5.5 2.5
      vertex 108.612 5.44889 2.5
    endloop
  endfacet
  facet normal 0.130599 -0.991435 0
    outer loop
      vertex 109 5.5 2.5
      vertex 108.612 5.44889 0
      vertex 109 5.5 0
    endloop
  endfacet
  facet normal 0.608346 -0.793672 0
    outer loop
      vertex 107.939 5.06066 0
      vertex 108.25 5.29904 2.5
      vertex 107.939 5.06066 2.5
    endloop
  endfacet
  facet normal 0.608346 -0.793672 0
    outer loop
      vertex 108.25 5.29904 2.5
      vertex 107.939 5.06066 0
      vertex 108.25 5.29904 0
    endloop
  endfacet
  facet normal 0.793819 0.608154 0
    outer loop
      vertex 107.939 2.93934 2.5
      vertex 107.701 3.25 0
      vertex 107.701 3.25 2.5
    endloop
  endfacet
  facet normal 0.793819 0.608154 0
    outer loop
      vertex 107.701 3.25 0
      vertex 107.939 2.93934 2.5
      vertex 107.939 2.93934 0
    endloop
  endfacet
  facet normal -0.793819 0.608154 0
    outer loop
      vertex 110.061 2.93934 0
      vertex 110.299 3.25 2.5
      vertex 110.299 3.25 0
    endloop
  endfacet
  facet normal -0.793819 0.608154 0
    outer loop
      vertex 110.299 3.25 2.5
      vertex 110.061 2.93934 0
      vertex 110.061 2.93934 2.5
    endloop
  endfacet
  facet normal -0.991482 0.130246 0
    outer loop
      vertex 110.449 3.61177 0
      vertex 110.5 4 2.5
      vertex 110.5 4 0
    endloop
  endfacet
  facet normal -0.991482 0.130246 0
    outer loop
      vertex 110.5 4 2.5
      vertex 110.449 3.61177 0
      vertex 110.449 3.61177 2.5
    endloop
  endfacet
  facet normal 0.923744 0.38301 0
    outer loop
      vertex 107.701 3.25 2.5
      vertex 107.551 3.61177 0
      vertex 107.551 3.61177 2.5
    endloop
  endfacet
  facet normal 0.923744 0.38301 0
    outer loop
      vertex 107.551 3.61177 0
      vertex 107.701 3.25 2.5
      vertex 107.701 3.25 0
    endloop
  endfacet
  facet normal -0.608346 -0.793672 0
    outer loop
      vertex 109.75 5.29904 0
      vertex 110.061 5.06066 2.5
      vertex 109.75 5.29904 2.5
    endloop
  endfacet
  facet normal -0.608346 -0.793672 -0
    outer loop
      vertex 110.061 5.06066 2.5
      vertex 109.75 5.29904 0
      vertex 110.061 5.06066 0
    endloop
  endfacet
  facet normal -0.130599 -0.991435 0
    outer loop
      vertex 109 5.5 0
      vertex 109.388 5.44889 2.5
      vertex 109 5.5 2.5
    endloop
  endfacet
  facet normal -0.130599 -0.991435 -0
    outer loop
      vertex 109.388 5.44889 2.5
      vertex 109 5.5 0
      vertex 109.388 5.44889 0
    endloop
  endfacet
  facet normal -0.608346 0.793672 0
    outer loop
      vertex 110.061 2.93934 0
      vertex 109.75 2.70096 2.5
      vertex 110.061 2.93934 2.5
    endloop
  endfacet
  facet normal -0.608346 0.793672 0
    outer loop
      vertex 109.75 2.70096 2.5
      vertex 110.061 2.93934 0
      vertex 109.75 2.70096 0
    endloop
  endfacet
  facet normal -0.793819 -0.608154 0
    outer loop
      vertex 110.299 4.75 0
      vertex 110.061 5.06066 2.5
      vertex 110.061 5.06066 0
    endloop
  endfacet
  facet normal -0.793819 -0.608154 0
    outer loop
      vertex 110.061 5.06066 2.5
      vertex 110.299 4.75 0
      vertex 110.299 4.75 2.5
    endloop
  endfacet
  facet normal 0.130599 0.991435 -0
    outer loop
      vertex 109 2.5 0
      vertex 108.612 2.55111 2.5
      vertex 109 2.5 2.5
    endloop
  endfacet
  facet normal 0.130599 0.991435 0
    outer loop
      vertex 108.612 2.55111 2.5
      vertex 109 2.5 0
      vertex 108.612 2.55111 0
    endloop
  endfacet
  facet normal 0.382476 0.923966 -0
    outer loop
      vertex 108.612 2.55111 0
      vertex 108.25 2.70096 2.5
      vertex 108.612 2.55111 2.5
    endloop
  endfacet
  facet normal 0.382476 0.923966 0
    outer loop
      vertex 108.25 2.70096 2.5
      vertex 108.612 2.55111 0
      vertex 108.25 2.70096 0
    endloop
  endfacet
  facet normal -0.923891 -0.382656 0
    outer loop
      vertex 5.44889 62.4882 0
      vertex 5.29904 62.85 2.5
      vertex 5.29904 62.85 0
    endloop
  endfacet
  facet normal -0.923891 -0.382656 0
    outer loop
      vertex 5.29904 62.85 2.5
      vertex 5.44889 62.4882 0
      vertex 5.44889 62.4882 2.5
    endloop
  endfacet
  facet normal -0.991444 -0.130532 0
    outer loop
      vertex 5.5 62.1 0
      vertex 5.44889 62.4882 2.5
      vertex 5.44889 62.4882 0
    endloop
  endfacet
  facet normal -0.991444 -0.130532 0
    outer loop
      vertex 5.44889 62.4882 2.5
      vertex 5.5 62.1 0
      vertex 5.5 62.1 2.5
    endloop
  endfacet
  facet normal 0.382792 0.923834 -0
    outer loop
      vertex 3.61177 60.6511 0
      vertex 3.25 60.801 2.5
      vertex 3.61177 60.6511 2.5
    endloop
  endfacet
  facet normal 0.382792 0.923834 0
    outer loop
      vertex 3.25 60.801 2.5
      vertex 3.61177 60.6511 0
      vertex 3.25 60.801 0
    endloop
  endfacet
  facet normal -0.382792 0.923834 0
    outer loop
      vertex 4.75 60.801 0
      vertex 4.38823 60.6511 2.5
      vertex 4.75 60.801 2.5
    endloop
  endfacet
  facet normal -0.382792 0.923834 0
    outer loop
      vertex 4.38823 60.6511 2.5
      vertex 4.75 60.801 0
      vertex 4.38823 60.6511 0
    endloop
  endfacet
  facet normal -0.382792 -0.923834 0
    outer loop
      vertex 4.38823 63.5489 0
      vertex 4.75 63.399 2.5
      vertex 4.38823 63.5489 2.5
    endloop
  endfacet
  facet normal -0.382792 -0.923834 -0
    outer loop
      vertex 4.75 63.399 2.5
      vertex 4.38823 63.5489 0
      vertex 4.75 63.399 0
    endloop
  endfacet
  facet normal 0.991444 0.130532 0
    outer loop
      vertex 2.55111 61.7118 2.5
      vertex 2.5 62.1 0
      vertex 2.5 62.1 2.5
    endloop
  endfacet
  facet normal 0.991444 0.130532 0
    outer loop
      vertex 2.5 62.1 0
      vertex 2.55111 61.7118 2.5
      vertex 2.55111 61.7118 0
    endloop
  endfacet
  facet normal 0.793388 -0.608716 0
    outer loop
      vertex 2.70096 62.85 2.5
      vertex 2.93934 63.1607 0
      vertex 2.93934 63.1607 2.5
    endloop
  endfacet
  facet normal 0.793388 -0.608716 0
    outer loop
      vertex 2.93934 63.1607 0
      vertex 2.70096 62.85 2.5
      vertex 2.70096 62.85 0
    endloop
  endfacet
  facet normal 0.608636 -0.793449 0
    outer loop
      vertex 2.93934 63.1607 0
      vertex 3.25 63.399 2.5
      vertex 2.93934 63.1607 2.5
    endloop
  endfacet
  facet normal 0.608636 -0.793449 0
    outer loop
      vertex 3.25 63.399 2.5
      vertex 2.93934 63.1607 0
      vertex 3.25 63.399 0
    endloop
  endfacet
  facet normal -0.793388 0.608716 0
    outer loop
      vertex 5.06066 61.0393 0
      vertex 5.29904 61.35 2.5
      vertex 5.29904 61.35 0
    endloop
  endfacet
  facet normal -0.793388 0.608716 0
    outer loop
      vertex 5.29904 61.35 2.5
      vertex 5.06066 61.0393 0
      vertex 5.06066 61.0393 2.5
    endloop
  endfacet
  facet normal 0.991444 -0.130532 0
    outer loop
      vertex 2.5 62.1 2.5
      vertex 2.55111 62.4882 0
      vertex 2.55111 62.4882 2.5
    endloop
  endfacet
  facet normal 0.991444 -0.130532 0
    outer loop
      vertex 2.55111 62.4882 0
      vertex 2.5 62.1 2.5
      vertex 2.5 62.1 0
    endloop
  endfacet
  facet normal 0.130497 -0.991449 0
    outer loop
      vertex 3.61177 63.5489 0
      vertex 4 63.6 2.5
      vertex 3.61177 63.5489 2.5
    endloop
  endfacet
  facet normal 0.130497 -0.991449 0
    outer loop
      vertex 4 63.6 2.5
      vertex 3.61177 63.5489 0
      vertex 4 63.6 0
    endloop
  endfacet
  facet normal -0.608636 0.793449 0
    outer loop
      vertex 5.06066 61.0393 0
      vertex 4.75 60.801 2.5
      vertex 5.06066 61.0393 2.5
    endloop
  endfacet
  facet normal -0.608636 0.793449 0
    outer loop
      vertex 4.75 60.801 2.5
      vertex 5.06066 61.0393 0
      vertex 4.75 60.801 0
    endloop
  endfacet
  facet normal -0.130497 0.991449 0
    outer loop
      vertex 4.38823 60.6511 0
      vertex 4 60.6 2.5
      vertex 4.38823 60.6511 2.5
    endloop
  endfacet
  facet normal -0.130497 0.991449 0
    outer loop
      vertex 4 60.6 2.5
      vertex 4.38823 60.6511 0
      vertex 4 60.6 0
    endloop
  endfacet
  facet normal 0.130497 0.991449 -0
    outer loop
      vertex 4 60.6 0
      vertex 3.61177 60.6511 2.5
      vertex 4 60.6 2.5
    endloop
  endfacet
  facet normal 0.130497 0.991449 0
    outer loop
      vertex 3.61177 60.6511 2.5
      vertex 4 60.6 0
      vertex 3.61177 60.6511 0
    endloop
  endfacet
  facet normal -0.991444 0.130532 0
    outer loop
      vertex 5.44889 61.7118 0
      vertex 5.5 62.1 2.5
      vertex 5.5 62.1 0
    endloop
  endfacet
  facet normal -0.991444 0.130532 0
    outer loop
      vertex 5.5 62.1 2.5
      vertex 5.44889 61.7118 0
      vertex 5.44889 61.7118 2.5
    endloop
  endfacet
  facet normal 0.382792 -0.923834 0
    outer loop
      vertex 3.25 63.399 0
      vertex 3.61177 63.5489 2.5
      vertex 3.25 63.399 2.5
    endloop
  endfacet
  facet normal 0.382792 -0.923834 0
    outer loop
      vertex 3.61177 63.5489 2.5
      vertex 3.25 63.399 0
      vertex 3.61177 63.5489 0
    endloop
  endfacet
  facet normal -0.923891 0.382656 0
    outer loop
      vertex 5.29904 61.35 0
      vertex 5.44889 61.7118 2.5
      vertex 5.44889 61.7118 0
    endloop
  endfacet
  facet normal -0.923891 0.382656 0
    outer loop
      vertex 5.44889 61.7118 2.5
      vertex 5.29904 61.35 0
      vertex 5.29904 61.35 2.5
    endloop
  endfacet
  facet normal -0.130497 -0.991449 0
    outer loop
      vertex 4 63.6 0
      vertex 4.38823 63.5489 2.5
      vertex 4 63.6 2.5
    endloop
  endfacet
  facet normal -0.130497 -0.991449 -0
    outer loop
      vertex 4.38823 63.5489 2.5
      vertex 4 63.6 0
      vertex 4.38823 63.5489 0
    endloop
  endfacet
  facet normal 0.923891 -0.382656 0
    outer loop
      vertex 2.55111 62.4882 2.5
      vertex 2.70096 62.85 0
      vertex 2.70096 62.85 2.5
    endloop
  endfacet
  facet normal 0.923891 -0.382656 0
    outer loop
      vertex 2.70096 62.85 0
      vertex 2.55111 62.4882 2.5
      vertex 2.55111 62.4882 0
    endloop
  endfacet
  facet normal -0.608636 -0.793449 0
    outer loop
      vertex 4.75 63.399 0
      vertex 5.06066 63.1607 2.5
      vertex 4.75 63.399 2.5
    endloop
  endfacet
  facet normal -0.608636 -0.793449 -0
    outer loop
      vertex 5.06066 63.1607 2.5
      vertex 4.75 63.399 0
      vertex 5.06066 63.1607 0
    endloop
  endfacet
  facet normal -0.793388 -0.608716 0
    outer loop
      vertex 5.29904 62.85 0
      vertex 5.06066 63.1607 2.5
      vertex 5.06066 63.1607 0
    endloop
  endfacet
  facet normal -0.793388 -0.608716 0
    outer loop
      vertex 5.06066 63.1607 2.5
      vertex 5.29904 62.85 0
      vertex 5.29904 62.85 2.5
    endloop
  endfacet
  facet normal 0.923891 0.382656 0
    outer loop
      vertex 2.70096 61.35 2.5
      vertex 2.55111 61.7118 0
      vertex 2.55111 61.7118 2.5
    endloop
  endfacet
  facet normal 0.923891 0.382656 0
    outer loop
      vertex 2.55111 61.7118 0
      vertex 2.70096 61.35 2.5
      vertex 2.70096 61.35 0
    endloop
  endfacet
  facet normal 0.793388 0.608716 0
    outer loop
      vertex 2.93934 61.0393 2.5
      vertex 2.70096 61.35 0
      vertex 2.70096 61.35 2.5
    endloop
  endfacet
  facet normal 0.793388 0.608716 0
    outer loop
      vertex 2.70096 61.35 0
      vertex 2.93934 61.0393 2.5
      vertex 2.93934 61.0393 0
    endloop
  endfacet
  facet normal 0.608636 0.793449 -0
    outer loop
      vertex 3.25 60.801 0
      vertex 2.93934 61.0393 2.5
      vertex 3.25 60.801 2.5
    endloop
  endfacet
  facet normal 0.608636 0.793449 0
    outer loop
      vertex 2.93934 61.0393 2.5
      vertex 3.25 60.801 0
      vertex 2.93934 61.0393 0
    endloop
  endfacet
  facet normal -0.923755 -0.382983 0
    outer loop
      vertex 110.449 62.4882 0
      vertex 110.299 62.85 2.5
      vertex 110.299 62.85 0
    endloop
  endfacet
  facet normal -0.923755 -0.382983 0
    outer loop
      vertex 110.299 62.85 2.5
      vertex 110.449 62.4882 0
      vertex 110.449 62.4882 2.5
    endloop
  endfacet
  facet normal -0.99148 -0.130256 0
    outer loop
      vertex 110.5 62.1 0
      vertex 110.449 62.4882 2.5
      vertex 110.449 62.4882 0
    endloop
  endfacet
  facet normal -0.99148 -0.130256 0
    outer loop
      vertex 110.449 62.4882 2.5
      vertex 110.5 62.1 0
      vertex 110.5 62.1 2.5
    endloop
  endfacet
  facet normal 0.382585 0.92392 -0
    outer loop
      vertex 108.612 60.6511 0
      vertex 108.25 60.801 2.5
      vertex 108.612 60.6511 2.5
    endloop
  endfacet
  facet normal 0.382585 0.92392 0
    outer loop
      vertex 108.25 60.801 2.5
      vertex 108.612 60.6511 0
      vertex 108.25 60.801 0
    endloop
  endfacet
  facet normal -0.382585 0.92392 0
    outer loop
      vertex 109.75 60.801 0
      vertex 109.388 60.6511 2.5
      vertex 109.75 60.801 2.5
    endloop
  endfacet
  facet normal -0.382585 0.92392 0
    outer loop
      vertex 109.388 60.6511 2.5
      vertex 109.75 60.801 0
      vertex 109.388 60.6511 0
    endloop
  endfacet
  facet normal -0.382585 -0.92392 0
    outer loop
      vertex 109.388 63.5489 0
      vertex 109.75 63.399 2.5
      vertex 109.388 63.5489 2.5
    endloop
  endfacet
  facet normal -0.382585 -0.92392 -0
    outer loop
      vertex 109.75 63.399 2.5
      vertex 109.388 63.5489 0
      vertex 109.75 63.399 0
    endloop
  endfacet
  facet normal 0.99148 0.130256 0
    outer loop
      vertex 107.551 61.7118 2.5
      vertex 107.5 62.1 0
      vertex 107.5 62.1 2.5
    endloop
  endfacet
  facet normal 0.99148 0.130256 0
    outer loop
      vertex 107.5 62.1 0
      vertex 107.551 61.7118 2.5
      vertex 107.551 61.7118 0
    endloop
  endfacet
  facet normal 0.793857 -0.608104 0
    outer loop
      vertex 107.701 62.85 2.5
      vertex 107.939 63.1607 0
      vertex 107.939 63.1607 2.5
    endloop
  endfacet
  facet normal 0.793857 -0.608104 0
    outer loop
      vertex 107.939 63.1607 0
      vertex 107.701 62.85 2.5
      vertex 107.701 62.85 0
    endloop
  endfacet
  facet normal 0.608217 -0.793771 0
    outer loop
      vertex 107.939 63.1607 0
      vertex 108.25 63.399 2.5
      vertex 107.939 63.1607 2.5
    endloop
  endfacet
  facet normal 0.608217 -0.793771 0
    outer loop
      vertex 108.25 63.399 2.5
      vertex 107.939 63.1607 0
      vertex 108.25 63.399 0
    endloop
  endfacet
  facet normal -0.793857 0.608104 0
    outer loop
      vertex 110.061 61.0393 0
      vertex 110.299 61.35 2.5
      vertex 110.299 61.35 0
    endloop
  endfacet
  facet normal -0.793857 0.608104 0
    outer loop
      vertex 110.299 61.35 2.5
      vertex 110.061 61.0393 0
      vertex 110.061 61.0393 2.5
    endloop
  endfacet
  facet normal 0.99148 -0.130256 0
    outer loop
      vertex 107.5 62.1 2.5
      vertex 107.551 62.4882 0
      vertex 107.551 62.4882 2.5
    endloop
  endfacet
  facet normal 0.99148 -0.130256 0
    outer loop
      vertex 107.551 62.4882 0
      vertex 107.5 62.1 2.5
      vertex 107.5 62.1 0
    endloop
  endfacet
  facet normal 0.130573 -0.991439 0
    outer loop
      vertex 108.612 63.5489 0
      vertex 109 63.6 2.5
      vertex 108.612 63.5489 2.5
    endloop
  endfacet
  facet normal 0.130573 -0.991439 0
    outer loop
      vertex 109 63.6 2.5
      vertex 108.612 63.5489 0
      vertex 109 63.6 0
    endloop
  endfacet
  facet normal -0.608217 0.793771 0
    outer loop
      vertex 110.061 61.0393 0
      vertex 109.75 60.801 2.5
      vertex 110.061 61.0393 2.5
    endloop
  endfacet
  facet normal -0.608217 0.793771 0
    outer loop
      vertex 109.75 60.801 2.5
      vertex 110.061 61.0393 0
      vertex 109.75 60.801 0
    endloop
  endfacet
  facet normal -0.130573 0.991439 0
    outer loop
      vertex 109.388 60.6511 0
      vertex 109 60.6 2.5
      vertex 109.388 60.6511 2.5
    endloop
  endfacet
  facet normal -0.130573 0.991439 0
    outer loop
      vertex 109 60.6 2.5
      vertex 109.388 60.6511 0
      vertex 109 60.6 0
    endloop
  endfacet
  facet normal 0.130573 0.991439 -0
    outer loop
      vertex 109 60.6 0
      vertex 108.612 60.6511 2.5
      vertex 109 60.6 2.5
    endloop
  endfacet
  facet normal 0.130573 0.991439 0
    outer loop
      vertex 108.612 60.6511 2.5
      vertex 109 60.6 0
      vertex 108.612 60.6511 0
    endloop
  endfacet
  facet normal -0.99148 0.130256 0
    outer loop
      vertex 110.449 61.7118 0
      vertex 110.5 62.1 2.5
      vertex 110.5 62.1 0
    endloop
  endfacet
  facet normal -0.99148 0.130256 0
    outer loop
      vertex 110.5 62.1 2.5
      vertex 110.449 61.7118 0
      vertex 110.449 61.7118 2.5
    endloop
  endfacet
  facet normal 0.382585 -0.92392 0
    outer loop
      vertex 108.25 63.399 0
      vertex 108.612 63.5489 2.5
      vertex 108.25 63.399 2.5
    endloop
  endfacet
  facet normal 0.382585 -0.92392 0
    outer loop
      vertex 108.612 63.5489 2.5
      vertex 108.25 63.399 0
      vertex 108.612 63.5489 0
    endloop
  endfacet
  facet normal -0.923755 0.382983 0
    outer loop
      vertex 110.299 61.35 0
      vertex 110.449 61.7118 2.5
      vertex 110.449 61.7118 0
    endloop
  endfacet
  facet normal -0.923755 0.382983 0
    outer loop
      vertex 110.449 61.7118 2.5
      vertex 110.299 61.35 0
      vertex 110.299 61.35 2.5
    endloop
  endfacet
  facet normal -0.130573 -0.991439 0
    outer loop
      vertex 109 63.6 0
      vertex 109.388 63.5489 2.5
      vertex 109 63.6 2.5
    endloop
  endfacet
  facet normal -0.130573 -0.991439 -0
    outer loop
      vertex 109.388 63.5489 2.5
      vertex 109 63.6 0
      vertex 109.388 63.5489 0
    endloop
  endfacet
  facet normal 0.923755 -0.382983 0
    outer loop
      vertex 107.551 62.4882 2.5
      vertex 107.701 62.85 0
      vertex 107.701 62.85 2.5
    endloop
  endfacet
  facet normal 0.923755 -0.382983 0
    outer loop
      vertex 107.701 62.85 0
      vertex 107.551 62.4882 2.5
      vertex 107.551 62.4882 0
    endloop
  endfacet
  facet normal -0.608217 -0.793771 0
    outer loop
      vertex 109.75 63.399 0
      vertex 110.061 63.1607 2.5
      vertex 109.75 63.399 2.5
    endloop
  endfacet
  facet normal -0.608217 -0.793771 -0
    outer loop
      vertex 110.061 63.1607 2.5
      vertex 109.75 63.399 0
      vertex 110.061 63.1607 0
    endloop
  endfacet
  facet normal -0.793857 -0.608104 0
    outer loop
      vertex 110.299 62.85 0
      vertex 110.061 63.1607 2.5
      vertex 110.061 63.1607 0
    endloop
  endfacet
  facet normal -0.793857 -0.608104 0
    outer loop
      vertex 110.061 63.1607 2.5
      vertex 110.299 62.85 0
      vertex 110.299 62.85 2.5
    endloop
  endfacet
  facet normal 0.923755 0.382983 0
    outer loop
      vertex 107.701 61.35 2.5
      vertex 107.551 61.7118 0
      vertex 107.551 61.7118 2.5
    endloop
  endfacet
  facet normal 0.923755 0.382983 0
    outer loop
      vertex 107.551 61.7118 0
      vertex 107.701 61.35 2.5
      vertex 107.701 61.35 0
    endloop
  endfacet
  facet normal 0.793857 0.608104 0
    outer loop
      vertex 107.939 61.0393 2.5
      vertex 107.701 61.35 0
      vertex 107.701 61.35 2.5
    endloop
  endfacet
  facet normal 0.793857 0.608104 0
    outer loop
      vertex 107.701 61.35 0
      vertex 107.939 61.0393 2.5
      vertex 107.939 61.0393 0
    endloop
  endfacet
  facet normal 0.608217 0.793771 -0
    outer loop
      vertex 108.25 60.801 0
      vertex 107.939 61.0393 2.5
      vertex 108.25 60.801 2.5
    endloop
  endfacet
  facet normal 0.608217 0.793771 0
    outer loop
      vertex 107.939 61.0393 2.5
      vertex 108.25 60.801 0
      vertex 107.939 61.0393 0
    endloop
  endfacet
  facet normal -0.980786 -0.195086 0
    outer loop
      vertex 0.102219 2.22354 0
      vertex 0.0256653 2.60841 2.5
      vertex 0.0256653 2.60841 0
    endloop
  endfacet
  facet normal -0.980786 -0.195086 0
    outer loop
      vertex 0.0256653 2.60841 2.5
      vertex 0.102219 2.22354 0
      vertex 0.102219 2.22354 2.5
    endloop
  endfacet
  facet normal 1 -0 0
    outer loop
      vertex 113.8 3 2.5
      vertex 113.8 64.4 0
      vertex 113.8 64.4 2.5
    endloop
  endfacet
  facet normal 1 0 0
    outer loop
      vertex 113.8 64.4 0
      vertex 113.8 3 2.5
      vertex 113.8 3 0
    endloop
  endfacet
  facet normal -0.94694 -0.321412 0
    outer loop
      vertex 0.228348 1.85194 0
      vertex 0.102219 2.22354 2.5
      vertex 0.102219 2.22354 0
    endloop
  endfacet
  facet normal -0.94694 -0.321412 0
    outer loop
      vertex 0.102219 2.22354 2.5
      vertex 0.228348 1.85194 0
      vertex 0.228348 1.85194 2.5
    endloop
  endfacet
  facet normal -0.997859 -0.0654009 0
    outer loop
      vertex 0.0256653 2.60841 0
      vertex 0 3 2.5
      vertex 0 3 0
    endloop
  endfacet
  facet normal -0.997859 -0.0654009 0
    outer loop
      vertex 0 3 2.5
      vertex 0.0256653 2.60841 0
      vertex 0.0256653 2.60841 2.5
    endloop
  endfacet
  facet normal 0.442251 -0.896891 0
    outer loop
      vertex 111.948 0.228348 0
      vertex 112.3 0.401917 2.5
      vertex 111.948 0.228348 2.5
    endloop
  endfacet
  facet normal 0.442251 -0.896891 0
    outer loop
      vertex 112.3 0.401917 2.5
      vertex 111.948 0.228348 0
      vertex 112.3 0.401917 0
    endloop
  endfacet
  facet normal 0.896425 -0.443195 0
    outer loop
      vertex 113.398 1.5 2.5
      vertex 113.572 1.85194 0
      vertex 113.572 1.85194 2.5
    endloop
  endfacet
  facet normal 0.896425 -0.443195 0
    outer loop
      vertex 113.572 1.85194 0
      vertex 113.398 1.5 2.5
      vertex 113.398 1.5 0
    endloop
  endfacet
  facet normal 0.997803 0.0662484 0
    outer loop
      vertex 113.8 64.4 2.5
      vertex 113.774 64.7916 0
      vertex 113.774 64.7916 2.5
    endloop
  endfacet
  facet normal 0.997803 0.0662484 0
    outer loop
      vertex 113.774 64.7916 0
      vertex 113.8 64.4 2.5
      vertex 113.8 64.4 0
    endloop
  endfacet
  facet normal 0.947013 0.321194 0
    outer loop
      vertex 113.698 65.1765 2.5
      vertex 113.572 65.548 0
      vertex 113.572 65.548 2.5
    endloop
  endfacet
  facet normal 0.947013 0.321194 0
    outer loop
      vertex 113.572 65.548 0
      vertex 113.698 65.1765 2.5
      vertex 113.698 65.1765 0
    endloop
  endfacet
  facet normal 0.751471 0.659766 0
    outer loop
      vertex 113.18 66.2263 2.5
      vertex 112.921 66.5213 0
      vertex 112.921 66.5213 2.5
    endloop
  endfacet
  facet normal 0.751471 0.659766 0
    outer loop
      vertex 112.921 66.5213 0
      vertex 113.18 66.2263 2.5
      vertex 113.18 66.2263 0
    endloop
  endfacet
  facet normal 0 1 -0
    outer loop
      vertex 110.8 67.4 0
      vertex 3 67.4 2.5
      vertex 110.8 67.4 2.5
    endloop
  endfacet
  facet normal 0 1 0
    outer loop
      vertex 3 67.4 2.5
      vertex 110.8 67.4 0
      vertex 3 67.4 0
    endloop
  endfacet
  facet normal -0.946913 0.321489 0
    outer loop
      vertex 0.102219 65.1765 0
      vertex 0.228348 65.548 2.5
      vertex 0.228348 65.548 0
    endloop
  endfacet
  facet normal -0.946913 0.321489 0
    outer loop
      vertex 0.228348 65.548 2.5
      vertex 0.102219 65.1765 0
      vertex 0.102219 65.1765 2.5
    endloop
  endfacet
  facet normal 0.981055 -0.193728 0
    outer loop
      vertex 113.698 2.22354 2.5
      vertex 113.774 2.60841 0
      vertex 113.774 2.60841 2.5
    endloop
  endfacet
  facet normal 0.981055 -0.193728 0
    outer loop
      vertex 113.774 2.60841 0
      vertex 113.698 2.22354 2.5
      vertex 113.698 2.22354 0
    endloop
  endfacet
  facet normal -0.751832 -0.659354 0
    outer loop
      vertex 0.878677 0.878677 0
      vertex 0.619934 1.17371 2.5
      vertex 0.619934 1.17371 0
    endloop
  endfacet
  facet normal -0.751832 -0.659354 0
    outer loop
      vertex 0.619934 1.17371 2.5
      vertex 0.878677 0.878677 0
      vertex 0.878677 0.878677 2.5
    endloop
  endfacet
  facet normal -1 0 0
    outer loop
      vertex 0 3 0
      vertex 0 64.4 2.5
      vertex 0 64.4 0
    endloop
  endfacet
  facet normal -1 -0 0
    outer loop
      vertex 0 64.4 2.5
      vertex 0 3 0
      vertex 0 3 2.5
    endloop
  endfacet
  facet normal 0 -1 0
    outer loop
      vertex 3 0 0
      vertex 110.8 0 2.5
      vertex 3 0 2.5
    endloop
  endfacet
  facet normal 0 -1 -0
    outer loop
      vertex 110.8 0 2.5
      vertex 3 0 0
      vertex 110.8 0 0
    endloop
  endfacet
  facet normal -0.195086 -0.980786 0
    outer loop
      vertex 2.22354 0.102219 0
      vertex 2.60841 0.0256653 2.5
      vertex 2.22354 0.102219 2.5
    endloop
  endfacet
  facet normal -0.195086 -0.980786 -0
    outer loop
      vertex 2.60841 0.0256653 2.5
      vertex 2.22354 0.102219 0
      vertex 2.60841 0.0256653 0
    endloop
  endfacet
  facet normal 0.0654208 0.997858 -0
    outer loop
      vertex 111.192 67.3743 0
      vertex 110.8 67.4 2.5
      vertex 111.192 67.3743 2.5
    endloop
  endfacet
  facet normal 0.0654208 0.997858 0
    outer loop
      vertex 110.8 67.4 2.5
      vertex 111.192 67.3743 0
      vertex 110.8 67.4 0
    endloop
  endfacet
  facet normal 0.831493 -0.555535 0
    outer loop
      vertex 113.18 1.17371 2.5
      vertex 113.398 1.5 0
      vertex 113.398 1.5 2.5
    endloop
  endfacet
  facet normal 0.831493 -0.555535 0
    outer loop
      vertex 113.398 1.5 0
      vertex 113.18 1.17371 2.5
      vertex 113.18 1.17371 0
    endloop
  endfacet
  facet normal 0.195511 -0.980701 0
    outer loop
      vertex 111.192 0.0256653 0
      vertex 111.576 0.102219 2.5
      vertex 111.192 0.0256653 2.5
    endloop
  endfacet
  facet normal 0.195511 -0.980701 0
    outer loop
      vertex 111.576 0.102219 2.5
      vertex 111.192 0.0256653 0
      vertex 111.576 0.102219 0
    endloop
  endfacet
  facet normal -0.997859 0.0653993 0
    outer loop
      vertex 0 64.4 0
      vertex 0.0256653 64.7916 2.5
      vertex 0.0256653 64.7916 0
    endloop
  endfacet
  facet normal -0.997859 0.0653993 0
    outer loop
      vertex 0.0256653 64.7916 2.5
      vertex 0 64.4 0
      vertex 0 64.4 2.5
    endloop
  endfacet
  facet normal -0.555565 -0.831473 0
    outer loop
      vertex 1.17371 0.619934 0
      vertex 1.5 0.401917 2.5
      vertex 1.17371 0.619934 2.5
    endloop
  endfacet
  facet normal -0.555565 -0.831473 -0
    outer loop
      vertex 1.5 0.401917 2.5
      vertex 1.17371 0.619934 0
      vertex 1.5 0.401917 0
    endloop
  endfacet
  facet normal 0.0653328 -0.997864 0
    outer loop
      vertex 110.8 0 0
      vertex 111.192 0.0256653 2.5
      vertex 110.8 0 2.5
    endloop
  endfacet
  facet normal 0.0653328 -0.997864 0
    outer loop
      vertex 111.192 0.0256653 2.5
      vertex 110.8 0 0
      vertex 111.192 0.0256653 0
    endloop
  endfacet
  facet normal -0.659437 0.75176 0
    outer loop
      vertex 1.17371 66.7801 0
      vertex 0.878677 66.5213 2.5
      vertex 1.17371 66.7801 2.5
    endloop
  endfacet
  facet normal -0.659437 0.75176 0
    outer loop
      vertex 0.878677 66.5213 2.5
      vertex 1.17371 66.7801 0
      vertex 0.878677 66.5213 0
    endloop
  endfacet
  facet normal 0.195379 0.980728 -0
    outer loop
      vertex 111.576 67.2978 0
      vertex 111.192 67.3743 2.5
      vertex 111.576 67.2978 2.5
    endloop
  endfacet
  facet normal 0.195379 0.980728 0
    outer loop
      vertex 111.192 67.3743 2.5
      vertex 111.576 67.2978 0
      vertex 111.192 67.3743 0
    endloop
  endfacet
  facet normal 0.981058 0.193714 0
    outer loop
      vertex 113.774 64.7916 2.5
      vertex 113.698 65.1765 0
      vertex 113.698 65.1765 2.5
    endloop
  endfacet
  facet normal 0.981058 0.193714 0
    outer loop
      vertex 113.698 65.1765 0
      vertex 113.774 64.7916 2.5
      vertex 113.774 64.7916 0
    endloop
  endfacet
  facet normal -0.194955 0.980812 0
    outer loop
      vertex 2.60841 67.3743 0
      vertex 2.22354 67.2978 2.5
      vertex 2.60841 67.3743 2.5
    endloop
  endfacet
  facet normal -0.194955 0.980812 0
    outer loop
      vertex 2.22354 67.2978 2.5
      vertex 2.60841 67.3743 0
      vertex 2.22354 67.2978 0
    endloop
  endfacet
  facet normal -0.831481 0.555553 0
    outer loop
      vertex 0.401917 65.9 0
      vertex 0.619934 66.2263 2.5
      vertex 0.619934 66.2263 0
    endloop
  endfacet
  facet normal -0.831481 0.555553 0
    outer loop
      vertex 0.619934 66.2263 2.5
      vertex 0.401917 65.9 0
      vertex 0.401917 65.9 2.5
    endloop
  endfacet
  facet normal -0.555535 0.831493 0
    outer loop
      vertex 1.5 66.9981 0
      vertex 1.17371 66.7801 2.5
      vertex 1.5 66.9981 2.5
    endloop
  endfacet
  facet normal -0.555535 0.831493 0
    outer loop
      vertex 1.17371 66.7801 2.5
      vertex 1.5 66.9981 0
      vertex 1.17371 66.7801 0
    endloop
  endfacet
  facet normal -0.896861 -0.442312 0
    outer loop
      vertex 0.401917 1.5 0
      vertex 0.228348 1.85194 2.5
      vertex 0.228348 1.85194 0
    endloop
  endfacet
  facet normal -0.896861 -0.442312 0
    outer loop
      vertex 0.228348 1.85194 2.5
      vertex 0.401917 1.5 0
      vertex 0.401917 1.5 2.5
    endloop
  endfacet
  facet normal -0.896891 0.442251 0
    outer loop
      vertex 0.228348 65.548 0
      vertex 0.401917 65.9 2.5
      vertex 0.401917 65.9 0
    endloop
  endfacet
  facet normal -0.896891 0.442251 0
    outer loop
      vertex 0.401917 65.9 2.5
      vertex 0.228348 65.548 0
      vertex 0.228348 65.548 2.5
    endloop
  endfacet
  facet normal 0.94704 -0.321117 0
    outer loop
      vertex 113.572 1.85194 2.5
      vertex 113.698 2.22354 0
      vertex 113.698 2.22354 2.5
    endloop
  endfacet
  facet normal 0.94704 -0.321117 0
    outer loop
      vertex 113.698 2.22354 0
      vertex 113.572 1.85194 2.5
      vertex 113.572 1.85194 0
    endloop
  endfacet
  facet normal -0.980789 0.195072 0
    outer loop
      vertex 0.0256653 64.7916 0
      vertex 0.102219 65.1765 2.5
      vertex 0.102219 65.1765 0
    endloop
  endfacet
  facet normal -0.980789 0.195072 0
    outer loop
      vertex 0.102219 65.1765 2.5
      vertex 0.0256653 64.7916 0
      vertex 0.0256653 64.7916 2.5
    endloop
  endfacet
  facet normal 0.555906 -0.831245 0
    outer loop
      vertex 112.3 0.401917 0
      vertex 112.626 0.619934 2.5
      vertex 112.3 0.401917 2.5
    endloop
  endfacet
  facet normal 0.555906 -0.831245 0
    outer loop
      vertex 112.626 0.619934 2.5
      vertex 112.3 0.401917 0
      vertex 112.626 0.619934 0
    endloop
  endfacet
  facet normal -0.321412 -0.94694 0
    outer loop
      vertex 1.85194 0.228348 0
      vertex 2.22354 0.102219 2.5
      vertex 1.85194 0.228348 2.5
    endloop
  endfacet
  facet normal -0.321412 -0.94694 -0
    outer loop
      vertex 2.22354 0.102219 2.5
      vertex 1.85194 0.228348 0
      vertex 2.22354 0.102219 0
    endloop
  endfacet
  facet normal -0.0654009 -0.997859 0
    outer loop
      vertex 2.60841 0.0256653 0
      vertex 3 0 2.5
      vertex 2.60841 0.0256653 2.5
    endloop
  endfacet
  facet normal -0.0654009 -0.997859 -0
    outer loop
      vertex 3 0 2.5
      vertex 2.60841 0.0256653 0
      vertex 3 0 0
    endloop
  endfacet
  facet normal 0.896455 0.443134 0
    outer loop
      vertex 113.572 65.548 2.5
      vertex 113.398 65.9 0
      vertex 113.398 65.9 2.5
    endloop
  endfacet
  facet normal 0.896455 0.443134 0
    outer loop
      vertex 113.398 65.9 0
      vertex 113.572 65.548 2.5
      vertex 113.572 65.548 0
    endloop
  endfacet
  facet normal -0.065489 0.997853 0
    outer loop
      vertex 3 67.4 0
      vertex 2.60841 67.3743 2.5
      vertex 3 67.4 2.5
    endloop
  endfacet
  facet normal -0.065489 0.997853 0
    outer loop
      vertex 2.60841 67.3743 2.5
      vertex 3 67.4 0
      vertex 2.60841 67.3743 0
    endloop
  endfacet
  facet normal 0.321102 -0.947045 0
    outer loop
      vertex 111.576 0.102219 0
      vertex 111.948 0.228348 2.5
      vertex 111.576 0.102219 2.5
    endloop
  endfacet
  facet normal 0.321102 -0.947045 0
    outer loop
      vertex 111.948 0.228348 2.5
      vertex 111.576 0.102219 0
      vertex 111.948 0.228348 0
    endloop
  endfacet
  facet normal -0.659354 -0.751832 0
    outer loop
      vertex 0.878677 0.878677 0
      vertex 1.17371 0.619934 2.5
      vertex 0.878677 0.878677 2.5
    endloop
  endfacet
  facet normal -0.659354 -0.751832 -0
    outer loop
      vertex 1.17371 0.619934 2.5
      vertex 0.878677 0.878677 0
      vertex 1.17371 0.619934 0
    endloop
  endfacet
  facet normal 0.659478 0.751724 -0
    outer loop
      vertex 112.921 66.5213 0
      vertex 112.626 66.7801 2.5
      vertex 112.921 66.5213 2.5
    endloop
  endfacet
  facet normal 0.659478 0.751724 0
    outer loop
      vertex 112.626 66.7801 2.5
      vertex 112.921 66.5213 0
      vertex 112.626 66.7801 0
    endloop
  endfacet
  facet normal 0.555877 0.831265 -0
    outer loop
      vertex 112.626 66.7801 0
      vertex 112.3 66.9981 2.5
      vertex 112.626 66.7801 2.5
    endloop
  endfacet
  facet normal 0.555877 0.831265 0
    outer loop
      vertex 112.3 66.9981 2.5
      vertex 112.626 66.7801 0
      vertex 112.3 66.9981 0
    endloop
  endfacet
  facet normal -0.321574 0.946885 0
    outer loop
      vertex 2.22354 67.2978 0
      vertex 1.85194 67.1716 2.5
      vertex 2.22354 67.2978 2.5
    endloop
  endfacet
  facet normal -0.321574 0.946885 0
    outer loop
      vertex 1.85194 67.1716 2.5
      vertex 2.22354 67.2978 0
      vertex 1.85194 67.1716 0
    endloop
  endfacet
  facet normal 0.659396 -0.751796 0
    outer loop
      vertex 112.626 0.619934 0
      vertex 112.921 0.878677 2.5
      vertex 112.626 0.619934 2.5
    endloop
  endfacet
  facet normal 0.659396 -0.751796 0
    outer loop
      vertex 112.921 0.878677 2.5
      vertex 112.626 0.619934 0
      vertex 112.921 0.878677 0
    endloop
  endfacet
  facet normal -0.442312 -0.896861 0
    outer loop
      vertex 1.5 0.401917 0
      vertex 1.85194 0.228348 2.5
      vertex 1.5 0.401917 2.5
    endloop
  endfacet
  facet normal -0.442312 -0.896861 -0
    outer loop
      vertex 1.85194 0.228348 2.5
      vertex 1.5 0.401917 0
      vertex 1.85194 0.228348 0
    endloop
  endfacet
  facet normal 0.997803 -0.0662501 0
    outer loop
      vertex 113.774 2.60841 2.5
      vertex 113.8 3 0
      vertex 113.8 3 2.5
    endloop
  endfacet
  facet normal 0.997803 -0.0662501 0
    outer loop
      vertex 113.8 3 0
      vertex 113.774 2.60841 2.5
      vertex 113.774 2.60841 0
    endloop
  endfacet
  facet normal -0.831473 -0.555565 0
    outer loop
      vertex 0.619934 1.17371 0
      vertex 0.401917 1.5 2.5
      vertex 0.401917 1.5 0
    endloop
  endfacet
  facet normal -0.831473 -0.555565 0
    outer loop
      vertex 0.401917 1.5 2.5
      vertex 0.619934 1.17371 0
      vertex 0.619934 1.17371 2.5
    endloop
  endfacet
  facet normal -0.442171 0.896931 0
    outer loop
      vertex 1.85194 67.1716 0
      vertex 1.5 66.9981 2.5
      vertex 1.85194 67.1716 2.5
    endloop
  endfacet
  facet normal -0.442171 0.896931 0
    outer loop
      vertex 1.5 66.9981 2.5
      vertex 1.85194 67.1716 0
      vertex 1.5 66.9981 0
    endloop
  endfacet
  facet normal 0.751508 -0.659724 0
    outer loop
      vertex 112.921 0.878677 2.5
      vertex 113.18 1.17371 0
      vertex 113.18 1.17371 2.5
    endloop
  endfacet
  facet normal 0.751508 -0.659724 0
    outer loop
      vertex 113.18 1.17371 0
      vertex 112.921 0.878677 2.5
      vertex 112.921 0.878677 0
    endloop
  endfacet
  facet normal -0.751796 0.659396 0
    outer loop
      vertex 0.619934 66.2263 0
      vertex 0.878677 66.5213 2.5
      vertex 0.878677 66.5213 0
    endloop
  endfacet
  facet normal -0.751796 0.659396 0
    outer loop
      vertex 0.878677 66.5213 2.5
      vertex 0.619934 66.2263 0
      vertex 0.619934 66.2263 2.5
    endloop
  endfacet
  facet normal 0.321264 0.94699 -0
    outer loop
      vertex 111.948 67.1716 0
      vertex 111.576 67.2978 2.5
      vertex 111.948 67.1716 2.5
    endloop
  endfacet
  facet normal 0.321264 0.94699 0
    outer loop
      vertex 111.576 67.2978 2.5
      vertex 111.948 67.1716 0
      vertex 111.576 67.2978 0
    endloop
  endfacet
  facet normal 0 0 1
    outer loop
      vertex 107.701 61.35 2.5
      vertex 5.29904 61.35 2.5
      vertex 107.701 4.75 2.5
    endloop
  endfacet
  facet normal 0 0 1
    outer loop
      vertex 107.701 4.75 2.5
      vertex 5.44889 4.38823 2.5
      vertex 5.5 4 2.5
    endloop
  endfacet
  facet normal 0 0 1
    outer loop
      vertex 5.29904 4.75 2.5
      vertex 107.701 4.75 2.5
      vertex 5.29904 61.35 2.5
    endloop
  endfacet
  facet normal 0 0 1
    outer loop
      vertex 107.701 4.75 2.5
      vertex 5.29904 4.75 2.5
      vertex 5.44889 4.38823 2.5
    endloop
  endfacet
  facet normal -0 0 1
    outer loop
      vertex 5.06066 61.0393 2.5
      vertex 5.29904 4.75 2.5
      vertex 5.29904 61.35 2.5
    endloop
  endfacet
  facet normal 0 0 1
    outer loop
      vertex 5.06066 61.0393 2.5
      vertex 5.06066 5.06066 2.5
      vertex 5.29904 4.75 2.5
    endloop
  endfacet
  facet normal -0 0 1
    outer loop
      vertex 4.75 60.801 2.5
      vertex 5.06066 5.06066 2.5
      vertex 5.06066 61.0393 2.5
    endloop
  endfacet
  facet normal 0 0 1
    outer loop
      vertex 4.75 60.801 2.5
      vertex 4.75 5.29904 2.5
      vertex 5.06066 5.06066 2.5
    endloop
  endfacet
  facet normal -0 0 1
    outer loop
      vertex 4.38823 60.6511 2.5
      vertex 4.75 5.29904 2.5
      vertex 4.75 60.801 2.5
    endloop
  endfacet
  facet normal 0 0 1
    outer loop
      vertex 4.38823 60.6511 2.5
      vertex 4.38823 5.44889 2.5
      vertex 4.75 5.29904 2.5
    endloop
  endfacet
  facet normal -0 0 1
    outer loop
      vertex 4 60.6 2.5
      vertex 4.38823 5.44889 2.5
      vertex 4.38823 60.6511 2.5
    endloop
  endfacet
  facet normal 0 0 1
    outer loop
      vertex 4 60.6 2.5
      vertex 4 5.5 2.5
      vertex 4.38823 5.44889 2.5
    endloop
  endfacet
  facet normal 0 0 1
    outer loop
      vertex 3.61177 60.6511 2.5
      vertex 4 5.5 2.5
      vertex 4 60.6 2.5
    endloop
  endfacet
  facet normal 0 0 1
    outer loop
      vertex 3.61177 60.6511 2.5
      vertex 3.61177 5.44889 2.5
      vertex 4 5.5 2.5
    endloop
  endfacet
  facet normal 0 0 1
    outer loop
      vertex 3.25 60.801 2.5
      vertex 3.61177 5.44889 2.5
      vertex 3.61177 60.6511 2.5
    endloop
  endfacet
  facet normal 0 0 1
    outer loop
      vertex 3.25 60.801 2.5
      vertex 3.25 5.29904 2.5
      vertex 3.61177 5.44889 2.5
    endloop
  endfacet
  facet normal 0 0 1
    outer loop
      vertex 2.93934 61.0393 2.5
      vertex 3.25 5.29904 2.5
      vertex 3.25 60.801 2.5
    endloop
  endfacet
  facet normal 0 0 1
    outer loop
      vertex 2.93934 61.0393 2.5
      vertex 2.93934 5.06066 2.5
      vertex 3.25 5.29904 2.5
    endloop
  endfacet
  facet normal 0 0 1
    outer loop
      vertex 0 64.4 2.5
      vertex 2.93934 61.0393 2.5
      vertex 2.70096 61.35 2.5
    endloop
  endfacet
  facet normal 0 0 1
    outer loop
      vertex 2.93934 61.0393 2.5
      vertex 0 3 2.5
      vertex 2.93934 5.06066 2.5
    endloop
  endfacet
  facet normal 0 0 1
    outer loop
      vertex 0 64.4 2.5
      vertex 2.70096 61.35 2.5
      vertex 2.55111 61.7118 2.5
    endloop
  endfacet
  facet normal 0 0 1
    outer loop
      vertex 2.93934 5.06066 2.5
      vertex 0 3 2.5
      vertex 2.70096 4.75 2.5
    endloop
  endfacet
  facet normal 0 0 1
    outer loop
      vertex 0 64.4 2.5
      vertex 2.55111 61.7118 2.5
      vertex 2.5 62.1 2.5
    endloop
  endfacet
  facet normal 0 0 1
    outer loop
      vertex 2.70096 4.75 2.5
      vertex 0 3 2.5
      vertex 2.55111 4.38823 2.5
    endloop
  endfacet
  facet normal 0 0 1
    outer loop
      vertex 110.061 61.0393 2.5
      vertex 113.8 64.4 2.5
      vertex 110.299 61.35 2.5
    endloop
  endfacet
  facet normal 0 0 1
    outer loop
      vertex 113.8 3 2.5
      vertex 110.449 4.38823 2.5
      vertex 110.5 4 2.5
    endloop
  endfacet
  facet normal 0 0 1
    outer loop
      vertex 113.8 64.4 2.5
      vertex 110.061 61.0393 2.5
      vertex 113.8 3 2.5
    endloop
  endfacet
  facet normal 0 0 1
    outer loop
      vertex 113.8 3 2.5
      vertex 110.299 4.75 2.5
      vertex 110.449 4.38823 2.5
    endloop
  endfacet
  facet normal -0 0 1
    outer loop
      vertex 109.75 60.801 2.5
      vertex 113.8 3 2.5
      vertex 110.061 61.0393 2.5
    endloop
  endfacet
  facet normal 0 0 1
    outer loop
      vertex 113.8 3 2.5
      vertex 110.061 5.06066 2.5
      vertex 110.299 4.75 2.5
    endloop
  endfacet
  facet normal -0 0 1
    outer loop
      vertex 109.75 5.29904 2.5
      vertex 113.8 3 2.5
      vertex 109.75 60.801 2.5
    endloop
  endfacet
  facet normal 0 0 1
    outer loop
      vertex 113.8 3 2.5
      vertex 109.75 5.29904 2.5
      vertex 110.061 5.06066 2.5
    endloop
  endfacet
  facet normal -0 0 1
    outer loop
      vertex 109.388 60.6511 2.5
      vertex 109.75 5.29904 2.5
      vertex 109.75 60.801 2.5
    endloop
  endfacet
  facet normal 0 0 1
    outer loop
      vertex 109.388 60.6511 2.5
      vertex 109.388 5.44889 2.5
      vertex 109.75 5.29904 2.5
    endloop
  endfacet
  facet normal -0 0 1
    outer loop
      vertex 109 60.6 2.5
      vertex 109.388 5.44889 2.5
      vertex 109.388 60.6511 2.5
    endloop
  endfacet
  facet normal 0 0 1
    outer loop
      vertex 109 60.6 2.5
      vertex 109 5.5 2.5
      vertex 109.388 5.44889 2.5
    endloop
  endfacet
  facet normal 0 0 1
    outer loop
      vertex 108.612 60.6511 2.5
      vertex 109 5.5 2.5
      vertex 109 60.6 2.5
    endloop
  endfacet
  facet normal 0 0 1
    outer loop
      vertex 108.612 60.6511 2.5
      vertex 108.612 5.44889 2.5
      vertex 109 5.5 2.5
    endloop
  endfacet
  facet normal 0 0 1
    outer loop
      vertex 108.25 60.801 2.5
      vertex 108.612 5.44889 2.5
      vertex 108.612 60.6511 2.5
    endloop
  endfacet
  facet normal 0 0 1
    outer loop
      vertex 108.25 60.801 2.5
      vertex 108.25 5.29904 2.5
      vertex 108.612 5.44889 2.5
    endloop
  endfacet
  facet normal 0 0 1
    outer loop
      vertex 107.939 61.0393 2.5
      vertex 108.25 5.29904 2.5
      vertex 108.25 60.801 2.5
    endloop
  endfacet
  facet normal 0 0 1
    outer loop
      vertex 107.939 61.0393 2.5
      vertex 107.939 5.06066 2.5
      vertex 108.25 5.29904 2.5
    endloop
  endfacet
  facet normal 0 0 1
    outer loop
      vertex 107.701 61.35 2.5
      vertex 107.939 5.06066 2.5
      vertex 107.939 61.0393 2.5
    endloop
  endfacet
  facet normal 0 0 1
    outer loop
      vertex 107.701 61.35 2.5
      vertex 107.701 4.75 2.5
      vertex 107.939 5.06066 2.5
    endloop
  endfacet
  facet normal 0 0 1
    outer loop
      vertex 5.44889 61.7118 2.5
      vertex 107.551 61.7118 2.5
      vertex 5.5 62.1 2.5
    endloop
  endfacet
  facet normal 0 0 1
    outer loop
      vertex 107.551 61.7118 2.5
      vertex 5.44889 61.7118 2.5
      vertex 107.701 61.35 2.5
    endloop
  endfacet
  facet normal -0 0 1
    outer loop
      vertex 5.5 62.1 2.5
      vertex 107.551 61.7118 2.5
      vertex 107.5 62.1 2.5
    endloop
  endfacet
  facet normal 0 0 1
    outer loop
      vertex 5.29904 61.35 2.5
      vertex 107.701 61.35 2.5
      vertex 5.44889 61.7118 2.5
    endloop
  endfacet
  facet normal 0 0 1
    outer loop
      vertex 110.061 63.1607 2.5
      vertex 113.8 64.4 2.5
      vertex 113.774 64.7916 2.5
    endloop
  endfacet
  facet normal 0 0 1
    outer loop
      vertex 110.449 61.7118 2.5
      vertex 113.8 64.4 2.5
      vertex 110.5 62.1 2.5
    endloop
  endfacet
  facet normal 0 0 1
    outer loop
      vertex 110.061 63.1607 2.5
      vertex 113.774 64.7916 2.5
      vertex 113.698 65.1765 2.5
    endloop
  endfacet
  facet normal 0 0 1
    outer loop
      vertex 110.299 61.35 2.5
      vertex 113.8 64.4 2.5
      vertex 110.449 61.7118 2.5
    endloop
  endfacet
  facet normal 0 0 1
    outer loop
      vertex 110.061 63.1607 2.5
      vertex 113.698 65.1765 2.5
      vertex 113.572 65.548 2.5
    endloop
  endfacet
  facet normal -0 0 1
    outer loop
      vertex 110.449 3.61177 2.5
      vertex 113.8 3 2.5
      vertex 110.5 4 2.5
    endloop
  endfacet
  facet normal 0 0 1
    outer loop
      vertex 110.061 63.1607 2.5
      vertex 113.572 65.548 2.5
      vertex 113.398 65.9 2.5
    endloop
  endfacet
  facet normal 0 0 1
    outer loop
      vertex 113.8 3 2.5
      vertex 110.449 3.61177 2.5
      vertex 113.774 2.60841 2.5
    endloop
  endfacet
  facet normal 0 0 1
    outer loop
      vertex 110.061 63.1607 2.5
      vertex 113.398 65.9 2.5
      vertex 113.18 66.2263 2.5
    endloop
  endfacet
  facet normal 0 0 1
    outer loop
      vertex 113.774 2.60841 2.5
      vertex 110.449 3.61177 2.5
      vertex 113.698 2.22354 2.5
    endloop
  endfacet
  facet normal 0 0 1
    outer loop
      vertex 110.061 63.1607 2.5
      vertex 113.18 66.2263 2.5
      vertex 112.921 66.5213 2.5
    endloop
  endfacet
  facet normal -0 0 1
    outer loop
      vertex 110.299 3.25 2.5
      vertex 113.698 2.22354 2.5
      vertex 110.449 3.61177 2.5
    endloop
  endfacet
  facet normal 0 0 1
    outer loop
      vertex 110.061 63.1607 2.5
      vertex 112.921 66.5213 2.5
      vertex 112.626 66.7801 2.5
    endloop
  endfacet
  facet normal 0 0 1
    outer loop
      vertex 113.698 2.22354 2.5
      vertex 110.299 3.25 2.5
      vertex 113.572 1.85194 2.5
    endloop
  endfacet
  facet normal 0 0 1
    outer loop
      vertex 109.75 63.399 2.5
      vertex 112.626 66.7801 2.5
      vertex 112.3 66.9981 2.5
    endloop
  endfacet
  facet normal 0 0 1
    outer loop
      vertex 113.572 1.85194 2.5
      vertex 110.299 3.25 2.5
      vertex 113.398 1.5 2.5
    endloop
  endfacet
  facet normal 0 0 1
    outer loop
      vertex 109.75 63.399 2.5
      vertex 112.3 66.9981 2.5
      vertex 111.948 67.1716 2.5
    endloop
  endfacet
  facet normal 0 0 1
    outer loop
      vertex 113.398 1.5 2.5
      vertex 110.299 3.25 2.5
      vertex 113.18 1.17371 2.5
    endloop
  endfacet
  facet normal 0 0 1
    outer loop
      vertex 109.75 63.399 2.5
      vertex 111.948 67.1716 2.5
      vertex 111.576 67.2978 2.5
    endloop
  endfacet
  facet normal 0 0 1
    outer loop
      vertex 113.18 1.17371 2.5
      vertex 110.299 3.25 2.5
      vertex 112.921 0.878677 2.5
    endloop
  endfacet
  facet normal 0 0 1
    outer loop
      vertex 109.75 63.399 2.5
      vertex 111.576 67.2978 2.5
      vertex 111.192 67.3743 2.5
    endloop
  endfacet
  facet normal 0 0 1
    outer loop
      vertex 112.921 0.878677 2.5
      vertex 110.299 3.25 2.5
      vertex 112.626 0.619934 2.5
    endloop
  endfacet
  facet normal 0 0 1
    outer loop
      vertex 109.75 63.399 2.5
      vertex 111.192 67.3743 2.5
      vertex 110.8 67.4 2.5
    endloop
  endfacet
  facet normal -0 0 1
    outer loop
      vertex 110.061 2.93934 2.5
      vertex 112.626 0.619934 2.5
      vertex 110.299 3.25 2.5
    endloop
  endfacet
  facet normal 0 0 1
    outer loop
      vertex 112.626 0.619934 2.5
      vertex 110.061 2.93934 2.5
      vertex 112.3 0.401917 2.5
    endloop
  endfacet
  facet normal 0 0 1
    outer loop
      vertex 113.8 64.4 2.5
      vertex 110.449 62.4882 2.5
      vertex 110.5 62.1 2.5
    endloop
  endfacet
  facet normal 0 0 1
    outer loop
      vertex 113.8 64.4 2.5
      vertex 110.299 62.85 2.5
      vertex 110.449 62.4882 2.5
    endloop
  endfacet
  facet normal 0 0 1
    outer loop
      vertex 113.8 64.4 2.5
      vertex 110.061 63.1607 2.5
      vertex 110.299 62.85 2.5
    endloop
  endfacet
  facet normal 0 0 1
    outer loop
      vertex 112.626 66.7801 2.5
      vertex 109.75 63.399 2.5
      vertex 110.061 63.1607 2.5
    endloop
  endfacet
  facet normal 0 0 1
    outer loop
      vertex 110.8 67.4 2.5
      vertex 109.388 63.5489 2.5
      vertex 109.75 63.399 2.5
    endloop
  endfacet
  facet normal 0 0 1
    outer loop
      vertex 110.8 67.4 2.5
      vertex 109 63.6 2.5
      vertex 109.388 63.5489 2.5
    endloop
  endfacet
  facet normal 0 0 1
    outer loop
      vertex 110.8 67.4 2.5
      vertex 108.612 63.5489 2.5
      vertex 109 63.6 2.5
    endloop
  endfacet
  facet normal 0 0 1
    outer loop
      vertex 110.8 67.4 2.5
      vertex 108.25 63.399 2.5
      vertex 108.612 63.5489 2.5
    endloop
  endfacet
  facet normal 0 0 1
    outer loop
      vertex 110.8 67.4 2.5
      vertex 107.939 63.1607 2.5
      vertex 108.25 63.399 2.5
    endloop
  endfacet
  facet normal 0 0 1
    outer loop
      vertex 110.8 67.4 2.5
      vertex 107.701 62.85 2.5
      vertex 107.939 63.1607 2.5
    endloop
  endfacet
  facet normal 0 0 1
    outer loop
      vertex 107.701 4.75 2.5
      vertex 5.5 4 2.5
      vertex 107.551 4.38823 2.5
    endloop
  endfacet
  facet normal 0 0 1
    outer loop
      vertex 107.551 62.4882 2.5
      vertex 5.5 62.1 2.5
      vertex 107.5 62.1 2.5
    endloop
  endfacet
  facet normal 0 0 1
    outer loop
      vertex 5.44889 62.4882 2.5
      vertex 107.551 62.4882 2.5
      vertex 107.701 62.85 2.5
    endloop
  endfacet
  facet normal -0 0 1
    outer loop
      vertex 3 67.4 2.5
      vertex 107.701 62.85 2.5
      vertex 110.8 67.4 2.5
    endloop
  endfacet
  facet normal 0 0 1
    outer loop
      vertex 107.551 62.4882 2.5
      vertex 5.44889 62.4882 2.5
      vertex 5.5 62.1 2.5
    endloop
  endfacet
  facet normal 0 0 1
    outer loop
      vertex 107.701 62.85 2.5
      vertex 5.29904 62.85 2.5
      vertex 5.44889 62.4882 2.5
    endloop
  endfacet
  facet normal 0 0 1
    outer loop
      vertex 107.701 62.85 2.5
      vertex 3 67.4 2.5
      vertex 5.29904 62.85 2.5
    endloop
  endfacet
  facet normal 0 0 1
    outer loop
      vertex 5.29904 62.85 2.5
      vertex 3 67.4 2.5
      vertex 5.06066 63.1607 2.5
    endloop
  endfacet
  facet normal 0 0 1
    outer loop
      vertex 5.06066 63.1607 2.5
      vertex 3 67.4 2.5
      vertex 4.75 63.399 2.5
    endloop
  endfacet
  facet normal 0 0 1
    outer loop
      vertex 4.75 63.399 2.5
      vertex 3 67.4 2.5
      vertex 4.38823 63.5489 2.5
    endloop
  endfacet
  facet normal 0 0 1
    outer loop
      vertex 4.38823 63.5489 2.5
      vertex 3 67.4 2.5
      vertex 4 63.6 2.5
    endloop
  endfacet
  facet normal 0 0 1
    outer loop
      vertex 3 67.4 2.5
      vertex 3.61177 63.5489 2.5
      vertex 4 63.6 2.5
    endloop
  endfacet
  facet normal -0 0 1
    outer loop
      vertex 2.60841 67.3743 2.5
      vertex 3.61177 63.5489 2.5
      vertex 3 67.4 2.5
    endloop
  endfacet
  facet normal -0 0 1
    outer loop
      vertex 2.22354 67.2978 2.5
      vertex 3.61177 63.5489 2.5
      vertex 2.60841 67.3743 2.5
    endloop
  endfacet
  facet normal -0 0 1
    outer loop
      vertex 1.85194 67.1716 2.5
      vertex 3.61177 63.5489 2.5
      vertex 2.22354 67.2978 2.5
    endloop
  endfacet
  facet normal 0 0 1
    outer loop
      vertex 3.61177 63.5489 2.5
      vertex 1.85194 67.1716 2.5
      vertex 3.25 63.399 2.5
    endloop
  endfacet
  facet normal -0 0 1
    outer loop
      vertex 1.5 66.9981 2.5
      vertex 3.25 63.399 2.5
      vertex 1.85194 67.1716 2.5
    endloop
  endfacet
  facet normal -0 0 1
    outer loop
      vertex 1.17371 66.7801 2.5
      vertex 3.25 63.399 2.5
      vertex 1.5 66.9981 2.5
    endloop
  endfacet
  facet normal -0 0 1
    outer loop
      vertex 0.619934 66.2263 2.5
      vertex 3.25 63.399 2.5
      vertex 0.878677 66.5213 2.5
    endloop
  endfacet
  facet normal -0 0 1
    outer loop
      vertex 0.878677 66.5213 2.5
      vertex 3.25 63.399 2.5
      vertex 1.17371 66.7801 2.5
    endloop
  endfacet
  facet normal 0 0 1
    outer loop
      vertex 112.3 0.401917 2.5
      vertex 110.061 2.93934 2.5
      vertex 111.948 0.228348 2.5
    endloop
  endfacet
  facet normal 0 0 1
    outer loop
      vertex 111.948 0.228348 2.5
      vertex 110.061 2.93934 2.5
      vertex 111.576 0.102219 2.5
    endloop
  endfacet
  facet normal 0 0 1
    outer loop
      vertex 111.576 0.102219 2.5
      vertex 110.061 2.93934 2.5
      vertex 111.192 0.0256653 2.5
    endloop
  endfacet
  facet normal 0 0 1
    outer loop
      vertex 111.192 0.0256653 2.5
      vertex 110.061 2.93934 2.5
      vertex 110.8 0 2.5
    endloop
  endfacet
  facet normal -0 0 1
    outer loop
      vertex 109.75 2.70096 2.5
      vertex 110.8 0 2.5
      vertex 110.061 2.93934 2.5
    endloop
  endfacet
  facet normal -0 0 1
    outer loop
      vertex 109.388 2.55111 2.5
      vertex 110.8 0 2.5
      vertex 109.75 2.70096 2.5
    endloop
  endfacet
  facet normal -0 0 1
    outer loop
      vertex 109 2.5 2.5
      vertex 110.8 0 2.5
      vertex 109.388 2.55111 2.5
    endloop
  endfacet
  facet normal 0 0 1
    outer loop
      vertex 108.612 2.55111 2.5
      vertex 110.8 0 2.5
      vertex 109 2.5 2.5
    endloop
  endfacet
  facet normal 0 0 1
    outer loop
      vertex 108.25 2.70096 2.5
      vertex 110.8 0 2.5
      vertex 108.612 2.55111 2.5
    endloop
  endfacet
  facet normal 0 0 1
    outer loop
      vertex 107.939 2.93934 2.5
      vertex 110.8 0 2.5
      vertex 108.25 2.70096 2.5
    endloop
  endfacet
  facet normal 0 0 1
    outer loop
      vertex 107.551 4.38823 2.5
      vertex 5.5 4 2.5
      vertex 107.5 4 2.5
    endloop
  endfacet
  facet normal 0 0 1
    outer loop
      vertex 107.5 4 2.5
      vertex 5.5 4 2.5
      vertex 107.551 3.61177 2.5
    endloop
  endfacet
  facet normal 0 0 1
    outer loop
      vertex 5.44889 3.61177 2.5
      vertex 107.551 3.61177 2.5
      vertex 5.5 4 2.5
    endloop
  endfacet
  facet normal 0 0 1
    outer loop
      vertex 107.551 3.61177 2.5
      vertex 5.44889 3.61177 2.5
      vertex 107.701 3.25 2.5
    endloop
  endfacet
  facet normal 0 0 1
    outer loop
      vertex 5.29904 3.25 2.5
      vertex 107.701 3.25 2.5
      vertex 5.44889 3.61177 2.5
    endloop
  endfacet
  facet normal 0 0 1
    outer loop
      vertex 3 0 2.5
      vertex 107.701 3.25 2.5
      vertex 5.29904 3.25 2.5
    endloop
  endfacet
  facet normal 0 0 1
    outer loop
      vertex 107.701 3.25 2.5
      vertex 3 0 2.5
      vertex 107.939 2.93934 2.5
    endloop
  endfacet
  facet normal 0 0 1
    outer loop
      vertex 3 0 2.5
      vertex 5.29904 3.25 2.5
      vertex 5.06066 2.93934 2.5
    endloop
  endfacet
  facet normal 0 0 1
    outer loop
      vertex 3 0 2.5
      vertex 5.06066 2.93934 2.5
      vertex 4.75 2.70096 2.5
    endloop
  endfacet
  facet normal 0 0 1
    outer loop
      vertex 3 0 2.5
      vertex 4.75 2.70096 2.5
      vertex 4.38823 2.55111 2.5
    endloop
  endfacet
  facet normal 0 0 1
    outer loop
      vertex 3 0 2.5
      vertex 4.38823 2.55111 2.5
      vertex 4 2.5 2.5
    endloop
  endfacet
  facet normal 0 0 1
    outer loop
      vertex 107.939 2.93934 2.5
      vertex 3 0 2.5
      vertex 110.8 0 2.5
    endloop
  endfacet
  facet normal 0 0 1
    outer loop
      vertex 3.61177 2.55111 2.5
      vertex 3 0 2.5
      vertex 4 2.5 2.5
    endloop
  endfacet
  facet normal 0 0 1
    outer loop
      vertex 3.25 2.70096 2.5
      vertex 3 0 2.5
      vertex 3.61177 2.55111 2.5
    endloop
  endfacet
  facet normal 0 0 1
    outer loop
      vertex 1.5 0.401917 2.5
      vertex 3.25 2.70096 2.5
      vertex 2.93934 2.93934 2.5
    endloop
  endfacet
  facet normal 0 0 1
    outer loop
      vertex 0.401917 1.5 2.5
      vertex 2.93934 2.93934 2.5
      vertex 2.70096 3.25 2.5
    endloop
  endfacet
  facet normal 0 0 1
    outer loop
      vertex 3.25 2.70096 2.5
      vertex 2.60841 0.0256653 2.5
      vertex 3 0 2.5
    endloop
  endfacet
  facet normal 0 0 1
    outer loop
      vertex 0 3 2.5
      vertex 2.70096 3.25 2.5
      vertex 2.55111 3.61177 2.5
    endloop
  endfacet
  facet normal 0 0 1
    outer loop
      vertex 0 3 2.5
      vertex 2.55111 3.61177 2.5
      vertex 2.5 4 2.5
    endloop
  endfacet
  facet normal 0 0 1
    outer loop
      vertex 3.25 2.70096 2.5
      vertex 2.22354 0.102219 2.5
      vertex 2.60841 0.0256653 2.5
    endloop
  endfacet
  facet normal 0 0 1
    outer loop
      vertex 2.93934 61.0393 2.5
      vertex 0 64.4 2.5
      vertex 0 3 2.5
    endloop
  endfacet
  facet normal -0 0 1
    outer loop
      vertex 0.401917 65.9 2.5
      vertex 3.25 63.399 2.5
      vertex 0.619934 66.2263 2.5
    endloop
  endfacet
  facet normal 0 0 1
    outer loop
      vertex 2.55111 4.38823 2.5
      vertex 0 3 2.5
      vertex 2.5 4 2.5
    endloop
  endfacet
  facet normal -0 0 1
    outer loop
      vertex 0.228348 65.548 2.5
      vertex 3.25 63.399 2.5
      vertex 0.401917 65.9 2.5
    endloop
  endfacet
  facet normal 0 0 1
    outer loop
      vertex 2.70096 3.25 2.5
      vertex 0 3 2.5
      vertex 0.0256653 2.60841 2.5
    endloop
  endfacet
  facet normal 0 0 1
    outer loop
      vertex 3.25 63.399 2.5
      vertex 0.228348 65.548 2.5
      vertex 2.93934 63.1607 2.5
    endloop
  endfacet
  facet normal 0 0 1
    outer loop
      vertex 3.25 2.70096 2.5
      vertex 1.85194 0.228348 2.5
      vertex 2.22354 0.102219 2.5
    endloop
  endfacet
  facet normal -0 0 1
    outer loop
      vertex 0.102219 65.1765 2.5
      vertex 2.93934 63.1607 2.5
      vertex 0.228348 65.548 2.5
    endloop
  endfacet
  facet normal 0 0 1
    outer loop
      vertex 3.25 2.70096 2.5
      vertex 1.5 0.401917 2.5
      vertex 1.85194 0.228348 2.5
    endloop
  endfacet
  facet normal -0 0 1
    outer loop
      vertex 0.0256653 64.7916 2.5
      vertex 2.93934 63.1607 2.5
      vertex 0.102219 65.1765 2.5
    endloop
  endfacet
  facet normal 0 0 1
    outer loop
      vertex 2.93934 2.93934 2.5
      vertex 1.17371 0.619934 2.5
      vertex 1.5 0.401917 2.5
    endloop
  endfacet
  facet normal -0 0 1
    outer loop
      vertex 0 64.4 2.5
      vertex 2.93934 63.1607 2.5
      vertex 0.0256653 64.7916 2.5
    endloop
  endfacet
  facet normal 0 0 1
    outer loop
      vertex 2.93934 2.93934 2.5
      vertex 0.878677 0.878677 2.5
      vertex 1.17371 0.619934 2.5
    endloop
  endfacet
  facet normal 0 0 1
    outer loop
      vertex 2.93934 63.1607 2.5
      vertex 0 64.4 2.5
      vertex 2.70096 62.85 2.5
    endloop
  endfacet
  facet normal 0 0 1
    outer loop
      vertex 2.93934 2.93934 2.5
      vertex 0.619934 1.17371 2.5
      vertex 0.878677 0.878677 2.5
    endloop
  endfacet
  facet normal 0 0 1
    outer loop
      vertex 2.70096 62.85 2.5
      vertex 0 64.4 2.5
      vertex 2.55111 62.4882 2.5
    endloop
  endfacet
  facet normal 0 0 1
    outer loop
      vertex 2.93934 2.93934 2.5
      vertex 0.401917 1.5 2.5
      vertex 0.619934 1.17371 2.5
    endloop
  endfacet
  facet normal 0 0 1
    outer loop
      vertex 2.55111 62.4882 2.5
      vertex 0 64.4 2.5
      vertex 2.5 62.1 2.5
    endloop
  endfacet
  facet normal 0 0 1
    outer loop
      vertex 2.70096 3.25 2.5
      vertex 0.228348 1.85194 2.5
      vertex 0.401917 1.5 2.5
    endloop
  endfacet
  facet normal 0 0 1
    outer loop
      vertex 2.70096 3.25 2.5
      vertex 0.102219 2.22354 2.5
      vertex 0.228348 1.85194 2.5
    endloop
  endfacet
  facet normal 0 0 1
    outer loop
      vertex 2.70096 3.25 2.5
      vertex 0.0256653 2.60841 2.5
      vertex 0.102219 2.22354 2.5
    endloop
  endfacet
  facet normal 0.831501 0.555523 0
    outer loop
      vertex 113.398 65.9 2.5
      vertex 113.18 66.2263 0
      vertex 113.18 66.2263 2.5
    endloop
  endfacet
  facet normal 0.831501 0.555523 0
    outer loop
      vertex 113.18 66.2263 0
      vertex 113.398 65.9 2.5
      vertex 113.398 65.9 0
    endloop
  endfacet
  facet normal 0 0 -1
    outer loop
      vertex 107.701 4.75 0
      vertex 5.29904 4.75 0
      vertex 107.701 61.35 0
    endloop
  endfacet
  facet normal 0 0 -1
    outer loop
      vertex 107.701 61.35 0
      vertex 5.44889 61.7118 0
      vertex 5.5 62.1 0
    endloop
  endfacet
  facet normal 0 0 -1
    outer loop
      vertex 5.29904 61.35 0
      vertex 107.701 61.35 0
      vertex 5.29904 4.75 0
    endloop
  endfacet
  facet normal 0 0 -1
    outer loop
      vertex 107.701 61.35 0
      vertex 5.29904 61.35 0
      vertex 5.44889 61.7118 0
    endloop
  endfacet
  facet normal 0 0 -1
    outer loop
      vertex 5.06066 5.06066 0
      vertex 5.29904 61.35 0
      vertex 5.29904 4.75 0
    endloop
  endfacet
  facet normal 0 0 -1
    outer loop
      vertex 5.06066 5.06066 0
      vertex 5.06066 61.0393 0
      vertex 5.29904 61.35 0
    endloop
  endfacet
  facet normal 0 0 -1
    outer loop
      vertex 4.75 5.29904 0
      vertex 5.06066 61.0393 0
      vertex 5.06066 5.06066 0
    endloop
  endfacet
  facet normal 0 0 -1
    outer loop
      vertex 4.75 5.29904 0
      vertex 4.75 60.801 0
      vertex 5.06066 61.0393 0
    endloop
  endfacet
  facet normal 0 0 -1
    outer loop
      vertex 4.38823 5.44889 0
      vertex 4.75 60.801 0
      vertex 4.75 5.29904 0
    endloop
  endfacet
  facet normal 0 0 -1
    outer loop
      vertex 4.38823 5.44889 0
      vertex 4.38823 60.6511 0
      vertex 4.75 60.801 0
    endloop
  endfacet
  facet normal 0 0 -1
    outer loop
      vertex 4 5.5 0
      vertex 4.38823 60.6511 0
      vertex 4.38823 5.44889 0
    endloop
  endfacet
  facet normal 0 0 -1
    outer loop
      vertex 4 5.5 0
      vertex 4 60.6 0
      vertex 4.38823 60.6511 0
    endloop
  endfacet
  facet normal 0 0 -1
    outer loop
      vertex 3.61177 5.44889 0
      vertex 4 60.6 0
      vertex 4 5.5 0
    endloop
  endfacet
  facet normal 0 0 -1
    outer loop
      vertex 3.61177 5.44889 0
      vertex 3.61177 60.6511 0
      vertex 4 60.6 0
    endloop
  endfacet
  facet normal 0 0 -1
    outer loop
      vertex 3.25 5.29904 0
      vertex 3.61177 60.6511 0
      vertex 3.61177 5.44889 0
    endloop
  endfacet
  facet normal 0 0 -1
    outer loop
      vertex 3.25 5.29904 0
      vertex 3.25 60.801 0
      vertex 3.61177 60.6511 0
    endloop
  endfacet
  facet normal 0 0 -1
    outer loop
      vertex 2.93934 5.06066 0
      vertex 3.25 60.801 0
      vertex 3.25 5.29904 0
    endloop
  endfacet
  facet normal 0 0 -1
    outer loop
      vertex 2.93934 5.06066 0
      vertex 2.93934 61.0393 0
      vertex 3.25 60.801 0
    endloop
  endfacet
  facet normal 0 0 -1
    outer loop
      vertex 0 3 0
      vertex 2.93934 5.06066 0
      vertex 2.70096 4.75 0
    endloop
  endfacet
  facet normal -0 0 -1
    outer loop
      vertex 2.93934 5.06066 0
      vertex 0 3 0
      vertex 2.93934 61.0393 0
    endloop
  endfacet
  facet normal 0 0 -1
    outer loop
      vertex 0 3 0
      vertex 2.70096 4.75 0
      vertex 2.55111 4.38823 0
    endloop
  endfacet
  facet normal 0 0 -1
    outer loop
      vertex 0 64.4 0
      vertex 2.93934 61.0393 0
      vertex 0 3 0
    endloop
  endfacet
  facet normal 0 0 -1
    outer loop
      vertex 0 3 0
      vertex 2.55111 4.38823 0
      vertex 2.5 4 0
    endloop
  endfacet
  facet normal 0 0 -1
    outer loop
      vertex 2.93934 61.0393 0
      vertex 0 64.4 0
      vertex 2.70096 61.35 0
    endloop
  endfacet
  facet normal 0 0 -1
    outer loop
      vertex 110.299 4.75 0
      vertex 113.8 3 0
      vertex 110.449 4.38823 0
    endloop
  endfacet
  facet normal 0 0 -1
    outer loop
      vertex 113.8 3 0
      vertex 110.449 61.7118 0
      vertex 110.5 62.1 0
    endloop
  endfacet
  facet normal 0 0 -1
    outer loop
      vertex 110.061 5.06066 0
      vertex 113.8 3 0
      vertex 110.299 4.75 0
    endloop
  endfacet
  facet normal 0 0 -1
    outer loop
      vertex 113.8 3 0
      vertex 110.299 61.35 0
      vertex 110.449 61.7118 0
    endloop
  endfacet
  facet normal 0 0 -1
    outer loop
      vertex 109.75 5.29904 0
      vertex 113.8 3 0
      vertex 110.061 5.06066 0
    endloop
  endfacet
  facet normal 0 0 -1
    outer loop
      vertex 113.8 3 0
      vertex 110.061 61.0393 0
      vertex 110.299 61.35 0
    endloop
  endfacet
  facet normal 0 0 -1
    outer loop
      vertex 109.75 60.801 0
      vertex 113.8 3 0
      vertex 109.75 5.29904 0
    endloop
  endfacet
  facet normal 0 0 -1
    outer loop
      vertex 113.8 3 0
      vertex 109.75 60.801 0
      vertex 110.061 61.0393 0
    endloop
  endfacet
  facet normal 0 0 -1
    outer loop
      vertex 109.388 5.44889 0
      vertex 109.75 60.801 0
      vertex 109.75 5.29904 0
    endloop
  endfacet
  facet normal 0 0 -1
    outer loop
      vertex 109.388 5.44889 0
      vertex 109.388 60.6511 0
      vertex 109.75 60.801 0
    endloop
  endfacet
  facet normal 0 0 -1
    outer loop
      vertex 109 5.5 0
      vertex 109.388 60.6511 0
      vertex 109.388 5.44889 0
    endloop
  endfacet
  facet normal 0 0 -1
    outer loop
      vertex 109 5.5 0
      vertex 109 60.6 0
      vertex 109.388 60.6511 0
    endloop
  endfacet
  facet normal 0 0 -1
    outer loop
      vertex 108.612 5.44889 0
      vertex 109 60.6 0
      vertex 109 5.5 0
    endloop
  endfacet
  facet normal 0 0 -1
    outer loop
      vertex 108.612 5.44889 0
      vertex 108.612 60.6511 0
      vertex 109 60.6 0
    endloop
  endfacet
  facet normal 0 0 -1
    outer loop
      vertex 108.25 5.29904 0
      vertex 108.612 60.6511 0
      vertex 108.612 5.44889 0
    endloop
  endfacet
  facet normal 0 0 -1
    outer loop
      vertex 108.25 5.29904 0
      vertex 108.25 60.801 0
      vertex 108.612 60.6511 0
    endloop
  endfacet
  facet normal 0 0 -1
    outer loop
      vertex 107.939 5.06066 0
      vertex 108.25 60.801 0
      vertex 108.25 5.29904 0
    endloop
  endfacet
  facet normal 0 0 -1
    outer loop
      vertex 107.939 5.06066 0
      vertex 107.939 61.0393 0
      vertex 108.25 60.801 0
    endloop
  endfacet
  facet normal 0 0 -1
    outer loop
      vertex 107.701 4.75 0
      vertex 107.939 61.0393 0
      vertex 107.939 5.06066 0
    endloop
  endfacet
  facet normal 0 0 -1
    outer loop
      vertex 107.701 4.75 0
      vertex 107.701 61.35 0
      vertex 107.939 61.0393 0
    endloop
  endfacet
  facet normal 0 0 -1
    outer loop
      vertex 5.44889 4.38823 0
      vertex 107.551 4.38823 0
      vertex 5.5 4 0
    endloop
  endfacet
  facet normal 0 0 -1
    outer loop
      vertex 107.551 4.38823 0
      vertex 5.44889 4.38823 0
      vertex 107.701 4.75 0
    endloop
  endfacet
  facet normal 0 0 -1
    outer loop
      vertex 5.5 4 0
      vertex 107.551 4.38823 0
      vertex 107.5 4 0
    endloop
  endfacet
  facet normal 0 0 -1
    outer loop
      vertex 5.29904 4.75 0
      vertex 107.701 4.75 0
      vertex 5.44889 4.38823 0
    endloop
  endfacet
  facet normal 0 0 -1
    outer loop
      vertex 110.449 3.61177 0
      vertex 113.8 3 0
      vertex 113.774 2.60841 0
    endloop
  endfacet
  facet normal 0 0 -1
    outer loop
      vertex 113.8 3 0
      vertex 110.5 62.1 0
      vertex 113.8 64.4 0
    endloop
  endfacet
  facet normal 0 0 -1
    outer loop
      vertex 110.449 3.61177 0
      vertex 113.774 2.60841 0
      vertex 113.698 2.22354 0
    endloop
  endfacet
  facet normal 0 0 -1
    outer loop
      vertex 110.449 62.4882 0
      vertex 113.8 64.4 0
      vertex 110.5 62.1 0
    endloop
  endfacet
  facet normal 0 0 -1
    outer loop
      vertex 110.299 3.25 0
      vertex 113.698 2.22354 0
      vertex 113.572 1.85194 0
    endloop
  endfacet
  facet normal 0 0 -1
    outer loop
      vertex 110.299 62.85 0
      vertex 113.8 64.4 0
      vertex 110.449 62.4882 0
    endloop
  endfacet
  facet normal 0 0 -1
    outer loop
      vertex 110.299 3.25 0
      vertex 113.572 1.85194 0
      vertex 113.398 1.5 0
    endloop
  endfacet
  facet normal 0 0 -1
    outer loop
      vertex 110.061 63.1607 0
      vertex 113.8 64.4 0
      vertex 110.299 62.85 0
    endloop
  endfacet
  facet normal 0 0 -1
    outer loop
      vertex 110.299 3.25 0
      vertex 113.398 1.5 0
      vertex 113.18 1.17371 0
    endloop
  endfacet
  facet normal -0 0 -1
    outer loop
      vertex 113.8 64.4 0
      vertex 110.061 63.1607 0
      vertex 113.774 64.7916 0
    endloop
  endfacet
  facet normal 0 0 -1
    outer loop
      vertex 110.299 3.25 0
      vertex 113.18 1.17371 0
      vertex 112.921 0.878677 0
    endloop
  endfacet
  facet normal -0 0 -1
    outer loop
      vertex 113.774 64.7916 0
      vertex 110.061 63.1607 0
      vertex 113.698 65.1765 0
    endloop
  endfacet
  facet normal 0 0 -1
    outer loop
      vertex 110.299 3.25 0
      vertex 112.921 0.878677 0
      vertex 112.626 0.619934 0
    endloop
  endfacet
  facet normal -0 0 -1
    outer loop
      vertex 113.698 65.1765 0
      vertex 110.061 63.1607 0
      vertex 113.572 65.548 0
    endloop
  endfacet
  facet normal 0 0 -1
    outer loop
      vertex 110.061 2.93934 0
      vertex 112.626 0.619934 0
      vertex 112.3 0.401917 0
    endloop
  endfacet
  facet normal -0 0 -1
    outer loop
      vertex 113.572 65.548 0
      vertex 110.061 63.1607 0
      vertex 113.398 65.9 0
    endloop
  endfacet
  facet normal 0 0 -1
    outer loop
      vertex 110.061 2.93934 0
      vertex 112.3 0.401917 0
      vertex 111.948 0.228348 0
    endloop
  endfacet
  facet normal -0 0 -1
    outer loop
      vertex 113.398 65.9 0
      vertex 110.061 63.1607 0
      vertex 113.18 66.2263 0
    endloop
  endfacet
  facet normal 0 0 -1
    outer loop
      vertex 110.061 2.93934 0
      vertex 111.948 0.228348 0
      vertex 111.576 0.102219 0
    endloop
  endfacet
  facet normal -0 0 -1
    outer loop
      vertex 113.18 66.2263 0
      vertex 110.061 63.1607 0
      vertex 112.921 66.5213 0
    endloop
  endfacet
  facet normal 0 0 -1
    outer loop
      vertex 110.061 2.93934 0
      vertex 111.576 0.102219 0
      vertex 111.192 0.0256653 0
    endloop
  endfacet
  facet normal 0 0 -1
    outer loop
      vertex 110.449 4.38823 0
      vertex 113.8 3 0
      vertex 110.5 4 0
    endloop
  endfacet
  facet normal 0 0 -1
    outer loop
      vertex 110.061 2.93934 0
      vertex 111.192 0.0256653 0
      vertex 110.8 0 0
    endloop
  endfacet
  facet normal -0 0 -1
    outer loop
      vertex 112.921 66.5213 0
      vertex 110.061 63.1607 0
      vertex 112.626 66.7801 0
    endloop
  endfacet
  facet normal 0 0 -1
    outer loop
      vertex 109.75 63.399 0
      vertex 112.626 66.7801 0
      vertex 110.061 63.1607 0
    endloop
  endfacet
  facet normal 0 0 -1
    outer loop
      vertex 113.8 3 0
      vertex 110.449 3.61177 0
      vertex 110.5 4 0
    endloop
  endfacet
  facet normal 0 0 -1
    outer loop
      vertex 113.698 2.22354 0
      vertex 110.299 3.25 0
      vertex 110.449 3.61177 0
    endloop
  endfacet
  facet normal 0 0 -1
    outer loop
      vertex 112.626 0.619934 0
      vertex 110.061 2.93934 0
      vertex 110.299 3.25 0
    endloop
  endfacet
  facet normal 0 0 -1
    outer loop
      vertex 110.8 0 0
      vertex 109.75 2.70096 0
      vertex 110.061 2.93934 0
    endloop
  endfacet
  facet normal 0 0 -1
    outer loop
      vertex 110.8 0 0
      vertex 109.388 2.55111 0
      vertex 109.75 2.70096 0
    endloop
  endfacet
  facet normal 0 0 -1
    outer loop
      vertex 110.8 0 0
      vertex 109 2.5 0
      vertex 109.388 2.55111 0
    endloop
  endfacet
  facet normal 0 0 -1
    outer loop
      vertex 110.8 0 0
      vertex 108.612 2.55111 0
      vertex 109 2.5 0
    endloop
  endfacet
  facet normal 0 0 -1
    outer loop
      vertex 110.8 0 0
      vertex 108.25 2.70096 0
      vertex 108.612 2.55111 0
    endloop
  endfacet
  facet normal 0 0 -1
    outer loop
      vertex 110.8 0 0
      vertex 107.939 2.93934 0
      vertex 108.25 2.70096 0
    endloop
  endfacet
  facet normal 0 0 -1
    outer loop
      vertex 107.701 61.35 0
      vertex 5.5 62.1 0
      vertex 107.551 61.7118 0
    endloop
  endfacet
  facet normal 0 0 -1
    outer loop
      vertex 107.551 3.61177 0
      vertex 5.5 4 0
      vertex 107.5 4 0
    endloop
  endfacet
  facet normal 0 0 -1
    outer loop
      vertex 5.44889 3.61177 0
      vertex 107.551 3.61177 0
      vertex 107.701 3.25 0
    endloop
  endfacet
  facet normal 0 0 -1
    outer loop
      vertex 3 0 0
      vertex 107.701 3.25 0
      vertex 107.939 2.93934 0
    endloop
  endfacet
  facet normal 0 0 -1
    outer loop
      vertex 3 0 0
      vertex 107.939 2.93934 0
      vertex 110.8 0 0
    endloop
  endfacet
  facet normal 0 0 -1
    outer loop
      vertex 107.551 3.61177 0
      vertex 5.44889 3.61177 0
      vertex 5.5 4 0
    endloop
  endfacet
  facet normal 0 0 -1
    outer loop
      vertex 107.701 3.25 0
      vertex 5.29904 3.25 0
      vertex 5.44889 3.61177 0
    endloop
  endfacet
  facet normal -0 0 -1
    outer loop
      vertex 107.701 3.25 0
      vertex 3 0 0
      vertex 5.29904 3.25 0
    endloop
  endfacet
  facet normal 0 0 -1
    outer loop
      vertex 5.29904 3.25 0
      vertex 3 0 0
      vertex 5.06066 2.93934 0
    endloop
  endfacet
  facet normal 0 0 -1
    outer loop
      vertex 5.06066 2.93934 0
      vertex 3 0 0
      vertex 4.75 2.70096 0
    endloop
  endfacet
  facet normal 0 0 -1
    outer loop
      vertex 4.75 2.70096 0
      vertex 3 0 0
      vertex 4.38823 2.55111 0
    endloop
  endfacet
  facet normal 0 0 -1
    outer loop
      vertex 4.38823 2.55111 0
      vertex 3 0 0
      vertex 4 2.5 0
    endloop
  endfacet
  facet normal 0 0 -1
    outer loop
      vertex 3 0 0
      vertex 3.61177 2.55111 0
      vertex 4 2.5 0
    endloop
  endfacet
  facet normal 0 0 -1
    outer loop
      vertex 3 0 0
      vertex 3.25 2.70096 0
      vertex 3.61177 2.55111 0
    endloop
  endfacet
  facet normal 0 0 -1
    outer loop
      vertex 2.60841 0.0256653 0
      vertex 3.25 2.70096 0
      vertex 3 0 0
    endloop
  endfacet
  facet normal 0 0 -1
    outer loop
      vertex 2.22354 0.102219 0
      vertex 3.25 2.70096 0
      vertex 2.60841 0.0256653 0
    endloop
  endfacet
  facet normal 0 0 -1
    outer loop
      vertex 1.85194 0.228348 0
      vertex 3.25 2.70096 0
      vertex 2.22354 0.102219 0
    endloop
  endfacet
  facet normal 0 0 -1
    outer loop
      vertex 1.5 0.401917 0
      vertex 3.25 2.70096 0
      vertex 1.85194 0.228348 0
    endloop
  endfacet
  facet normal -0 0 -1
    outer loop
      vertex 3.25 2.70096 0
      vertex 1.5 0.401917 0
      vertex 2.93934 2.93934 0
    endloop
  endfacet
  facet normal 0 0 -1
    outer loop
      vertex 0.878677 0.878677 0
      vertex 2.93934 2.93934 0
      vertex 1.17371 0.619934 0
    endloop
  endfacet
  facet normal 0 0 -1
    outer loop
      vertex 1.17371 0.619934 0
      vertex 2.93934 2.93934 0
      vertex 1.5 0.401917 0
    endloop
  endfacet
  facet normal -0 0 -1
    outer loop
      vertex 112.626 66.7801 0
      vertex 109.75 63.399 0
      vertex 112.3 66.9981 0
    endloop
  endfacet
  facet normal -0 0 -1
    outer loop
      vertex 112.3 66.9981 0
      vertex 109.75 63.399 0
      vertex 111.948 67.1716 0
    endloop
  endfacet
  facet normal -0 0 -1
    outer loop
      vertex 111.948 67.1716 0
      vertex 109.75 63.399 0
      vertex 111.576 67.2978 0
    endloop
  endfacet
  facet normal -0 0 -1
    outer loop
      vertex 111.576 67.2978 0
      vertex 109.75 63.399 0
      vertex 111.192 67.3743 0
    endloop
  endfacet
  facet normal -0 0 -1
    outer loop
      vertex 111.192 67.3743 0
      vertex 109.75 63.399 0
      vertex 110.8 67.4 0
    endloop
  endfacet
  facet normal 0 0 -1
    outer loop
      vertex 109.388 63.5489 0
      vertex 110.8 67.4 0
      vertex 109.75 63.399 0
    endloop
  endfacet
  facet normal 0 0 -1
    outer loop
      vertex 109 63.6 0
      vertex 110.8 67.4 0
      vertex 109.388 63.5489 0
    endloop
  endfacet
  facet normal 0 0 -1
    outer loop
      vertex 108.612 63.5489 0
      vertex 110.8 67.4 0
      vertex 109 63.6 0
    endloop
  endfacet
  facet normal 0 0 -1
    outer loop
      vertex 108.25 63.399 0
      vertex 110.8 67.4 0
      vertex 108.612 63.5489 0
    endloop
  endfacet
  facet normal 0 0 -1
    outer loop
      vertex 107.939 63.1607 0
      vertex 110.8 67.4 0
      vertex 108.25 63.399 0
    endloop
  endfacet
  facet normal 0 0 -1
    outer loop
      vertex 107.701 62.85 0
      vertex 110.8 67.4 0
      vertex 107.939 63.1607 0
    endloop
  endfacet
  facet normal 0 0 -1
    outer loop
      vertex 107.551 61.7118 0
      vertex 5.5 62.1 0
      vertex 107.5 62.1 0
    endloop
  endfacet
  facet normal 0 0 -1
    outer loop
      vertex 107.5 62.1 0
      vertex 5.5 62.1 0
      vertex 107.551 62.4882 0
    endloop
  endfacet
  facet normal 0 0 -1
    outer loop
      vertex 5.44889 62.4882 0
      vertex 107.551 62.4882 0
      vertex 5.5 62.1 0
    endloop
  endfacet
  facet normal 0 0 -1
    outer loop
      vertex 107.551 62.4882 0
      vertex 5.44889 62.4882 0
      vertex 107.701 62.85 0
    endloop
  endfacet
  facet normal 0 0 -1
    outer loop
      vertex 5.29904 62.85 0
      vertex 107.701 62.85 0
      vertex 5.44889 62.4882 0
    endloop
  endfacet
  facet normal 0 0 -1
    outer loop
      vertex 3 67.4 0
      vertex 107.701 62.85 0
      vertex 5.29904 62.85 0
    endloop
  endfacet
  facet normal 0 0 -1
    outer loop
      vertex 3 67.4 0
      vertex 5.29904 62.85 0
      vertex 5.06066 63.1607 0
    endloop
  endfacet
  facet normal 0 0 -1
    outer loop
      vertex 3 67.4 0
      vertex 5.06066 63.1607 0
      vertex 4.75 63.399 0
    endloop
  endfacet
  facet normal 0 0 -1
    outer loop
      vertex 3 67.4 0
      vertex 4.75 63.399 0
      vertex 4.38823 63.5489 0
    endloop
  endfacet
  facet normal 0 0 -1
    outer loop
      vertex 3 67.4 0
      vertex 4.38823 63.5489 0
      vertex 4 63.6 0
    endloop
  endfacet
  facet normal 0 0 -1
    outer loop
      vertex 107.701 62.85 0
      vertex 3 67.4 0
      vertex 110.8 67.4 0
    endloop
  endfacet
  facet normal 0 0 -1
    outer loop
      vertex 3.61177 63.5489 0
      vertex 3 67.4 0
      vertex 4 63.6 0
    endloop
  endfacet
  facet normal 0 0 -1
    outer loop
      vertex 1.85194 67.1716 0
      vertex 3.61177 63.5489 0
      vertex 3.25 63.399 0
    endloop
  endfacet
  facet normal 0 0 -1
    outer loop
      vertex 0.228348 65.548 0
      vertex 3.25 63.399 0
      vertex 2.93934 63.1607 0
    endloop
  endfacet
  facet normal 0 0 -1
    outer loop
      vertex 0 64.4 0
      vertex 2.93934 63.1607 0
      vertex 2.70096 62.85 0
    endloop
  endfacet
  facet normal 0 0 -1
    outer loop
      vertex 3.61177 63.5489 0
      vertex 2.60841 67.3743 0
      vertex 3 67.4 0
    endloop
  endfacet
  facet normal 0 0 -1
    outer loop
      vertex 0 64.4 0
      vertex 2.70096 62.85 0
      vertex 2.55111 62.4882 0
    endloop
  endfacet
  facet normal 0 0 -1
    outer loop
      vertex 0 64.4 0
      vertex 2.55111 62.4882 0
      vertex 2.5 62.1 0
    endloop
  endfacet
  facet normal 0 0 -1
    outer loop
      vertex 3.61177 63.5489 0
      vertex 2.22354 67.2978 0
      vertex 2.60841 67.3743 0
    endloop
  endfacet
  facet normal 0 0 -1
    outer loop
      vertex 2.70096 61.35 0
      vertex 0 64.4 0
      vertex 2.55111 61.7118 0
    endloop
  endfacet
  facet normal 0 0 -1
    outer loop
      vertex 0.619934 1.17371 0
      vertex 2.93934 2.93934 0
      vertex 0.878677 0.878677 0
    endloop
  endfacet
  facet normal 0 0 -1
    outer loop
      vertex 2.55111 61.7118 0
      vertex 0 64.4 0
      vertex 2.5 62.1 0
    endloop
  endfacet
  facet normal 0 0 -1
    outer loop
      vertex 0.401917 1.5 0
      vertex 2.93934 2.93934 0
      vertex 0.619934 1.17371 0
    endloop
  endfacet
  facet normal 0 0 -1
    outer loop
      vertex 2.93934 63.1607 0
      vertex 0 64.4 0
      vertex 0.0256653 64.7916 0
    endloop
  endfacet
  facet normal -0 0 -1
    outer loop
      vertex 2.93934 2.93934 0
      vertex 0.401917 1.5 0
      vertex 2.70096 3.25 0
    endloop
  endfacet
  facet normal 0 0 -1
    outer loop
      vertex 3.61177 63.5489 0
      vertex 1.85194 67.1716 0
      vertex 2.22354 67.2978 0
    endloop
  endfacet
  facet normal 0 0 -1
    outer loop
      vertex 0.228348 1.85194 0
      vertex 2.70096 3.25 0
      vertex 0.401917 1.5 0
    endloop
  endfacet
  facet normal 0 0 -1
    outer loop
      vertex 3.25 63.399 0
      vertex 1.5 66.9981 0
      vertex 1.85194 67.1716 0
    endloop
  endfacet
  facet normal 0 0 -1
    outer loop
      vertex 0.102219 2.22354 0
      vertex 2.70096 3.25 0
      vertex 0.228348 1.85194 0
    endloop
  endfacet
  facet normal 0 0 -1
    outer loop
      vertex 3.25 63.399 0
      vertex 1.17371 66.7801 0
      vertex 1.5 66.9981 0
    endloop
  endfacet
  facet normal 0 0 -1
    outer loop
      vertex 0.0256653 2.60841 0
      vertex 2.70096 3.25 0
      vertex 0.102219 2.22354 0
    endloop
  endfacet
  facet normal 0 0 -1
    outer loop
      vertex 3.25 63.399 0
      vertex 0.878677 66.5213 0
      vertex 1.17371 66.7801 0
    endloop
  endfacet
  facet normal 0 0 -1
    outer loop
      vertex 0 3 0
      vertex 2.70096 3.25 0
      vertex 0.0256653 2.60841 0
    endloop
  endfacet
  facet normal 0 0 -1
    outer loop
      vertex 3.25 63.399 0
      vertex 0.619934 66.2263 0
      vertex 0.878677 66.5213 0
    endloop
  endfacet
  facet normal -0 0 -1
    outer loop
      vertex 2.70096 3.25 0
      vertex 0 3 0
      vertex 2.55111 3.61177 0
    endloop
  endfacet
  facet normal 0 0 -1
    outer loop
      vertex 3.25 63.399 0
      vertex 0.401917 65.9 0
      vertex 0.619934 66.2263 0
    endloop
  endfacet
  facet normal -0 0 -1
    outer loop
      vertex 2.55111 3.61177 0
      vertex 0 3 0
      vertex 2.5 4 0
    endloop
  endfacet
  facet normal 0 0 -1
    outer loop
      vertex 3.25 63.399 0
      vertex 0.228348 65.548 0
      vertex 0.401917 65.9 0
    endloop
  endfacet
  facet normal 0 0 -1
    outer loop
      vertex 2.93934 63.1607 0
      vertex 0.102219 65.1765 0
      vertex 0.228348 65.548 0
    endloop
  endfacet
  facet normal 0 0 -1
    outer loop
      vertex 2.93934 63.1607 0
      vertex 0.0256653 64.7916 0
      vertex 0.102219 65.1765 0
    endloop
  endfacet
  facet normal 0.44211 0.896961 -0
    outer loop
      vertex 112.3 66.9981 0
      vertex 111.948 67.1716 2.5
      vertex 112.3 66.9981 2.5
    endloop
  endfacet
  facet normal 0.44211 0.896961 0
    outer loop
      vertex 111.948 67.1716 2.5
      vertex 112.3 66.9981 0
      vertex 111.948 67.1716 0
    endloop
  endfacet
endsolid OpenSCAD_Model
